<svg width="104" height="86" viewBox="0 0 104 86" fill="none" xmlns="http://www.w3.org/2000/svg">
<path d="M37.6854 14.4136H33.9992C33.008 14.4136 32.2046 15.2178 32.2046 16.2098V26.0679C32.2046 27.0599 33.008 27.8641 33.9992 27.8641H37.6854C38.6765 27.8641 39.48 27.0599 39.48 26.0679V16.2098C39.48 15.2178 38.6765 14.4136 37.6854 14.4136Z" fill="white" stroke="#1D1E1E" stroke-width="1.5" stroke-miterlimit="10"/>
<path d="M32.6242 71.7533C33.8517 70.5857 34.7737 69.134 35.309 67.526C35.8444 65.9181 35.9767 64.203 35.6944 62.5318C35.4121 60.8606 34.7238 59.2845 33.69 57.942C32.6562 56.5996 31.3086 55.532 29.7657 54.8332C28.2229 54.1344 26.5322 53.8258 24.8422 53.9345C23.1523 54.0432 21.515 54.566 20.0742 55.4567C18.6335 56.3475 17.4336 57.579 16.58 59.0428C15.7265 60.5067 15.2454 62.1581 15.1792 63.8517C14.7219 63.7452 14.2542 63.6901 13.7847 63.6873C12.8118 63.6853 11.8523 63.9139 10.9847 64.3543C10.117 64.7948 9.36577 65.4346 8.79254 66.2213C8.21932 67.0081 7.84035 67.9195 7.68659 68.881C7.53283 69.8425 7.60867 70.8268 7.90792 71.7533H32.6242Z" fill="white" stroke="#1D1E1E" stroke-width="1.5" stroke-linecap="round" stroke-linejoin="round"/>
<path d="M0.76358 71.8544H89.4507H102.873" fill="white"/>
<path d="M0.76358 71.8544H89.4507H102.873" stroke="#1D1E1E" stroke-width="1.5" stroke-miterlimit="10" stroke-linecap="round"/>
<path d="M20.648 71.8545H82.7441V38.3674C82.7211 37.1502 82.4101 35.9557 81.8367 34.8819C81.2634 33.8082 80.4439 32.8858 79.4455 32.1903L52.9851 12.7524C52.5591 12.4521 52.0507 12.2909 51.5296 12.2909C51.0085 12.2909 50.5001 12.4521 50.0741 12.7524L23.6811 32.0006C22.6664 32.7006 21.8344 33.6344 21.2553 34.7233C20.6761 35.8121 20.3668 37.0243 20.3531 38.2578L20.648 71.8545Z" fill="white" stroke="#1D1E1E" stroke-width="1.5" stroke-miterlimit="10"/>
<path d="M54.779 71.8545V50.9661C54.7692 49.7445 55.0042 48.5334 55.4702 47.4043C55.9362 46.2753 56.6237 45.2512 57.492 44.3926C58.9126 42.9804 60.8336 42.1877 62.8359 42.1877C64.8382 42.1877 66.7592 42.9804 68.1797 44.3926C69.0494 45.2504 69.7381 46.2742 70.2048 47.4034C70.6716 48.5326 70.907 49.7441 70.897 50.9661V71.8545H54.779Z" fill="#318FCC" stroke="#1D1E1E" stroke-width="1.5" stroke-miterlimit="10"/>
<path d="M29.1035 60.2126H47.5554" stroke="#1D1E1E" stroke-width="1.5" stroke-miterlimit="10" stroke-linecap="round"/>
<path d="M38.2656 42.9504C34.411 42.9504 31.2893 45.3833 31.2893 48.3897V60.1958H45.2462V48.3897C45.2462 45.3833 42.1203 42.9504 38.2656 42.9504Z" fill="#318FCC" stroke="#1D1E1E" stroke-width="1.5" stroke-miterlimit="10" stroke-linecap="round"/>
</svg>
