<svg width="121" height="90" viewBox="0 0 121 90" fill="none" xmlns="http://www.w3.org/2000/svg">
<path d="M81.2574 5.3561H111.891C112.611 5.3561 113.302 5.64469 113.811 6.15839C114.32 6.67209 114.606 7.36882 114.606 8.0953V73.7609C114.606 74.4874 114.32 75.1841 113.811 75.6978C113.302 76.2115 112.611 76.5001 111.891 76.5001H78.5354V8.10215C78.5345 7.74128 78.6043 7.38379 78.7408 7.05021C78.8773 6.71664 79.0777 6.41356 79.3307 6.15838C79.5836 5.90321 79.884 5.70097 80.2147 5.56329C80.5453 5.4256 80.8997 5.35519 81.2574 5.3561Z" fill="white" stroke="#1D1E1E" stroke-width="1.3" stroke-miterlimit="10" stroke-linecap="round"/>
<path d="M9.06813 37.7061H78.5354V76.6439H9.06813C8.34802 76.6439 7.65741 76.3553 7.14822 75.8416C6.63903 75.3279 6.35297 74.6312 6.35297 73.9047V40.4522C6.35208 40.0919 6.42165 39.7349 6.5577 39.4018C6.69375 39.0687 6.8936 38.7659 7.14582 38.5108C7.39803 38.2557 7.69765 38.0534 8.02751 37.9153C8.35737 37.7772 8.711 37.7061 9.06813 37.7061V37.7061Z" fill="white" stroke="#1D1E1E" stroke-width="1.3" stroke-miterlimit="10" stroke-linecap="round"/>
<path d="M42.4442 37.7061V76.6507" stroke="#1D1E1E" stroke-width="1.3" stroke-miterlimit="10" stroke-linecap="round"/>
<path d="M78.5354 28.0915H114.647" stroke="#1D1E1E" stroke-width="1.3" stroke-miterlimit="10" stroke-linecap="round"/>
<path d="M107.615 13.1286V21.2914" stroke="#1D1E1E" stroke-width="1.3" stroke-miterlimit="10" stroke-linecap="round"/>
<path d="M72.63 43.1229H49.395" stroke="#1D1E1E" stroke-width="1.3" stroke-miterlimit="10" stroke-linecap="round"/>
<path d="M52.1577 47.2933H49.4289" stroke="#1D1E1E" stroke-width="1.3" stroke-miterlimit="10" stroke-linecap="round"/>
<path d="M72.63 47.2933H69.8944" stroke="#1D1E1E" stroke-width="1.3" stroke-miterlimit="10" stroke-linecap="round"/>
<path d="M62.3735 47.2933H59.6447" stroke="#1D1E1E" stroke-width="1.3" stroke-miterlimit="10" stroke-linecap="round"/>
<path d="M107.615 33.6247V41.7875" stroke="#1D1E1E" stroke-width="1.3" stroke-miterlimit="10" stroke-linecap="round"/>
<path d="M69.9148 53.6962H52.1441C50.6446 53.6962 49.4289 54.9226 49.4289 56.4354V67.8237C49.4289 69.3365 50.6446 70.5629 52.1441 70.5629H69.9148C71.4144 70.5629 72.63 69.3365 72.63 67.8237V56.4354C72.63 54.9226 71.4144 53.6962 69.9148 53.6962Z" fill="#318FCC" stroke="#1D1E1E" stroke-width="1.3" stroke-miterlimit="10" stroke-linecap="round"/>
<path d="M33.7625 44.3761H15.9918C14.4922 44.3761 13.2766 45.6025 13.2766 47.1153V67.8168C13.2766 69.3296 14.4922 70.556 15.9918 70.556H33.7625C35.262 70.556 36.4776 69.3296 36.4776 67.8168V47.1153C36.4776 45.6025 35.262 44.3761 33.7625 44.3761Z" fill="#318FCC" stroke="#1D1E1E" stroke-width="1.3" stroke-miterlimit="10" stroke-linecap="round"/>
<path d="M13.2766 57.4695H36.4776" stroke="#1D1E1E" stroke-width="1.3" stroke-miterlimit="10" stroke-linecap="round"/>
<path d="M23.7707 51.0323H25.9836" stroke="#1D1E1E" stroke-width="1.3" stroke-miterlimit="10" stroke-linecap="round"/>
<path d="M23.7707 64.5435H25.9836" stroke="#1D1E1E" stroke-width="1.3" stroke-miterlimit="10" stroke-linecap="round"/>
<path d="M24.8771 37.7061V27.4341C24.8771 26.4079 25.2812 25.4238 26.0004 24.6982C26.7197 23.9726 27.6951 23.565 28.7123 23.565V23.565C29.7294 23.565 30.7049 23.9726 31.4242 24.6982C32.1434 25.4238 32.5474 26.4079 32.5474 27.4341V28.1189" stroke="#1D1E1E" stroke-width="1.3" stroke-miterlimit="10" stroke-linecap="round"/>
<path d="M1.5 76.6L119.5 76.9" stroke="#1D1E1E" stroke-width="1.3" stroke-linecap="round"/>
</svg>
