<svg width="102" height="83" viewBox="0 0 102 83" fill="none" xmlns="http://www.w3.org/2000/svg">
<path d="M0.801514 70.0181H87.3477H100.947" fill="white"/>
<path d="M0.801514 70.0181H87.3477H100.947" stroke="#1D1E1E" stroke-width="1.39091" stroke-miterlimit="10" stroke-linecap="round"/>
<path d="M89.7954 70.0181V67.6454C89.7954 67.1985 89.2963 66.8545 88.6854 66.8545H79.2946C78.6797 66.8545 78.1806 67.2143 78.1806 67.6454V70.0181H89.7954Z" fill="white" stroke="#1D1E1E" stroke-width="1.39091" stroke-miterlimit="10" stroke-linecap="round"/>
<path d="M83.9881 66.8585V18.8591" stroke="#1D1E1E" stroke-width="1.39091" stroke-miterlimit="10" stroke-linecap="round"/>
<path d="M80.412 18.0247H87.4432" stroke="#1D1E1E" stroke-width="1.39091" stroke-miterlimit="10" stroke-linecap="round"/>
<path d="M91.4235 4.61108H76.5467C74.4849 4.61108 72.8135 6.26648 72.8135 8.30852V13.4889C72.8135 15.5309 74.4849 17.1863 76.5467 17.1863H91.4235C93.4853 17.1863 95.1567 15.5309 95.1567 13.4889V8.30852C95.1567 6.26648 93.4853 4.61108 91.4235 4.61108Z" fill="#318FCC" stroke="#1D1E1E" stroke-width="1.39091" stroke-miterlimit="10"/>
<path d="M18.2579 60.6671L16.3254 66.7135C16.2311 67.0147 16.1984 67.3314 16.2291 67.6452C16.2598 67.959 16.3533 68.2636 16.5042 68.5412C16.6552 68.8188 16.8604 69.0638 17.1081 69.262C17.3557 69.4601 17.6407 69.6074 17.9465 69.6952C18.5456 69.8584 19.1854 69.7847 19.7307 69.4896C20.2761 69.1945 20.6843 68.701 20.8691 68.1134L22.9733 61.3908L18.2579 60.6671Z" fill="white" stroke="#1D1E1E" stroke-width="1.39091" stroke-miterlimit="10" stroke-linecap="round"/>
<path d="M66.66 60.8666L68.516 66.988C68.606 67.2926 68.637 67.613 68.6072 67.9302C68.5775 68.2475 68.4875 68.5554 68.3426 68.836C68.1977 69.1166 68.0007 69.3642 67.7632 69.5645C67.5257 69.7649 67.2523 69.9138 66.9591 70.0027C66.3836 70.168 65.7692 70.0934 65.2454 69.7946C64.7217 69.4958 64.3296 68.9962 64.152 68.4013L62.1273 61.5952L66.66 60.8666Z" fill="white" stroke="#1D1E1E" stroke-width="1.39091" stroke-miterlimit="10" stroke-linecap="round"/>
<path d="M63.5387 21.7117H21.4435C20.2427 21.7121 19.0585 21.99 17.9851 22.5231C16.9116 23.0562 15.9786 23.8299 15.2599 24.7827C14.5413 25.7355 14.0569 26.8412 13.8453 28.0119C13.6337 29.1826 13.7007 30.3861 14.041 31.5267L19.6907 50.4726C19.8808 51.115 20.2763 51.6789 20.8177 52.0797C21.3592 52.4804 22.0173 52.6963 22.6932 52.695H62.293C62.9686 52.695 63.6261 52.4787 64.1673 52.0781C64.7084 51.6775 65.1043 51.1143 65.2956 50.4726L70.9452 31.5267C71.2856 30.3858 71.3525 29.182 71.1407 28.011C70.9289 26.84 70.4442 25.734 69.7251 24.7811C69.006 23.8282 68.0724 23.0546 66.9985 22.5217C65.9245 21.9889 64.7399 21.7115 63.5387 21.7117Z" fill="white" stroke="#1D1E1E" stroke-width="1.39091" stroke-miterlimit="10"/>
<path d="M61.554 60.501C60.0367 60.6157 24.8689 60.5841 23.2718 60.4377C21.3313 60.2558 19.8141 58.3972 19.6783 56.0878C19.5765 54.4258 19.5765 52.7593 19.6783 51.0973C19.8181 48.8472 21.2754 47.0004 23.1759 46.7711C24.8409 46.5654 60.0926 46.5457 61.7297 46.7276C63.6661 46.9451 65.1674 48.8155 65.2832 51.1091C65.3643 52.785 65.3576 54.464 65.2632 56.1392C65.1195 58.4961 63.5344 60.3547 61.554 60.501Z" fill="#318FCC" stroke="#1D1E1E" stroke-width="1.39091" stroke-miterlimit="10"/>
<path d="M73.2877 35.5682C72.2106 35.4036 71.1097 35.6282 70.1861 36.2011C69.2624 36.7739 68.5777 37.6567 68.2569 38.6883L66.3843 44.7149C65.8413 46.4628 65.422 48.4518 64.1244 49.832C62.8268 51.2121 60.9302 51.4138 59.2054 51.5364C50.7927 52.0465 42.38 51.9753 33.9594 51.9318C30.83 51.92 27.7038 51.7299 24.5964 51.3623C22.4963 51.1172 20.3282 50.2709 19.6535 48.0959L16.7268 38.6685C16.3885 37.5933 15.6554 36.6829 14.6724 36.1169C13.6893 35.5509 12.5278 35.3706 11.417 35.6115C10.3063 35.8524 9.32708 36.497 8.67278 37.418C8.01849 38.3391 7.73665 39.4696 7.88291 40.5864L9.63173 57.0291C9.84666 58.6317 10.6422 60.1023 11.8703 61.1673C13.0983 62.2323 14.6753 62.8191 16.3076 62.8185H68.6721C70.2998 62.8195 71.8729 62.237 73.1007 61.1786C74.3286 60.1203 75.1282 58.6576 75.3519 57.0607L77.1007 40.6181C77.26 39.4494 76.9497 38.2655 76.2366 37.3211C75.5235 36.3767 74.4646 35.7472 73.2877 35.5682Z" fill="white" stroke="#1D1E1E" stroke-width="1.39091" stroke-miterlimit="10"/>
</svg>
