<svg width="125" height="95" viewBox="0 0 125 95" fill="none" xmlns="http://www.w3.org/2000/svg">
<rect width="125" height="95" fill="white"/>
<path d="M77.3827 21.5895C78.0831 21.7075 78.6669 22.0616 79.0657 22.5927C79.4743 23.1238 79.7662 23.7729 79.7662 24.4122V42.1743C79.8245 47.1705 78.3653 52.0586 75.6899 56.2876C73.0146 60.5266 69.1135 63.9295 64.5216 66.1129C62.7218 66.939 60.6788 68.1094 58.8791 68.1094C57.0793 68.1094 55.0363 66.9292 53.2365 66.1129C48.6447 63.9393 44.7436 60.5266 42.0682 56.2876C39.3929 52.0586 37.9433 47.1804 38.0017 42.1841V24.4122C38.0017 23.7631 38.2352 23.1139 38.7021 22.5927C39.1107 22.0616 39.7528 21.7075 40.3852 21.5895C45.5607 20.7043 51.787 18.9439 57.3128 15.4721C57.7798 15.177 58.3635 15 58.8791 15C59.3947 15 59.9881 15.177 60.4454 15.4721C65.9128 18.9439 72.139 20.7043 77.373 21.5895H77.3827Z" fill="#318FCC" stroke="black" stroke-width="1.4" stroke-miterlimit="10"/>
<path d="M71.9153 27.52C72.4114 27.6183 72.8103 27.874 73.1022 28.2183C73.4037 28.5723 73.5983 29.0739 73.5983 29.5165V42.0365C73.647 45.5378 72.606 48.9998 70.7284 51.9995C68.8508 54.9992 66.1171 57.4088 62.8483 58.9135C61.5641 59.5135 60.1243 60.32 58.8888 60.32C57.6533 60.32 56.1648 59.4643 54.9293 58.9135C51.7092 57.3596 48.9365 54.9598 47.0492 51.9995C45.1716 49.049 44.1307 45.587 44.1793 42.0365V29.5165C44.1793 29.0641 44.3252 28.6117 44.6755 28.2183C44.977 27.8642 45.4148 27.6183 45.8623 27.52C49.53 26.92 53.8884 25.671 57.7992 23.2122C58.1494 23.0155 58.5386 22.8582 58.8888 22.8582C59.239 22.8582 59.6768 22.9565 59.9784 23.2122C63.8406 25.612 68.2476 26.8709 71.9153 27.52Z" fill="white" stroke="black" stroke-width="1.4" stroke-miterlimit="10"/>
<path d="M87.7108 78.9083V65.2179C87.7108 59.0415 82.759 54.0354 76.6495 54.0354H69.2461C63.1366 54.0354 58.1848 59.0415 58.1848 65.2179V78.9083" fill="#FCFCFC"/>
<path d="M72.9527 54.0353C79.0136 54.0353 83.8876 49.1079 83.8876 43.0299C83.8876 36.9518 78.9649 32.0244 72.9527 32.0244C66.9405 32.0244 62.0179 36.9518 62.0179 43.0299C62.0179 49.1079 66.9405 54.0353 72.9527 54.0353Z" fill="white" stroke="black" stroke-width="1.4" stroke-miterlimit="10"/>
<path d="M70.4427 47.3867C71.6296 48.4882 74.2271 48.5866 75.5113 47.3867" stroke="black" stroke-width="1.4" stroke-miterlimit="10" stroke-linecap="round"/>
<path d="M87.526 78.9083V65.2179C87.526 59.0415 82.5742 54.0354 76.4647 54.0354H69.0613C62.9518 54.0354 58 59.0415 58 65.2179V78.9083" stroke="black" stroke-width="1.4" stroke-miterlimit="10" stroke-linecap="round"/>
<path d="M84.8021 68.7485H76.3091C74.1883 68.7485 72.4663 70.4893 72.4663 72.6334C72.4663 74.7774 74.1883 76.5182 76.3091 76.5182H84.8021" stroke="black" stroke-width="1.4" stroke-miterlimit="10" stroke-linecap="round"/>
<path d="M64.917 66.3489V78.9083" stroke="black" stroke-width="1.4" stroke-miterlimit="10" stroke-linecap="round"/>
<path d="M78.6244 54.4287L76.2993 76.5085H83.012L80.224 55.2984" fill="#318FCC"/>
<path d="M78.6244 54.4287L76.2993 76.5085H83.012L80.224 55.2984C80.1586 54.8008 79.7345 54.4287 79.2326 54.4287H78.6244Z" stroke="black" stroke-width="1.4" stroke-miterlimit="10"/>
</svg>
