<svg width="122" height="91" viewBox="0 0 122 91" fill="none" xmlns="http://www.w3.org/2000/svg">
<path d="M26.4159 13.0043C24.2948 12.9495 22.2012 13.4219 20.3135 14.3804C18.4258 15.3321 16.7989 16.7356 15.584 18.4678C13.8473 21.042 12.9412 24.0887 13.003 27.1902C13.0579 30.2916 14.0738 33.3041 15.9066 35.8099C22.3247 45.3949 34.9208 53.7682 35.4631 54.1173C35.772 54.3227 36.1289 54.4323 36.4996 54.4323C36.8703 54.4323 37.2341 54.3227 37.5361 54.1173C38.0715 53.7682 50.6676 45.3881 57.0926 35.8099C58.9254 33.3041 59.9345 30.2916 59.9962 27.1902C60.0512 24.0887 59.1588 21.042 57.4221 18.4678C56.2003 16.7424 54.5734 15.3458 52.6857 14.3873C50.798 13.4356 48.7044 12.9563 46.5833 13.0043C44.5652 13.0727 42.5951 13.6273 40.8379 14.62C39.0806 15.6128 37.591 17.0163 36.4996 18.7074C35.4082 17.0163 33.9186 15.6128 32.1613 14.62C30.4041 13.6273 28.434 13.0727 26.4159 13.0043Z" fill="#318FCC" stroke="#1D1E1E" stroke-width="1.4" stroke-miterlimit="10"/>
<path fill-rule="evenodd" clip-rule="evenodd" d="M108.341 67.3155C107.668 66.2748 106.487 65.6107 105.265 65.8161C103.995 66.0283 103.501 67.0211 103 68.0069C101.449 70.5881 99.5062 71.615 98.0509 71.9574C97.4743 72.0943 96.9389 71.574 97.0487 70.992C98.9158 60.9414 94.7492 55.7449 93.6509 54.5673C93.3695 54.2661 93.1086 53.958 92.8546 53.6362C90.9463 51.2536 84.4183 43.0926 80.3478 37.8756C75.8585 32.7613 74.1012 32.2889 73.8885 32.2478C74.1768 31.6933 74.3827 31.0565 74.4582 30.3171C74.6023 28.8657 74.1356 27.4211 73.2707 26.2435C72.0763 24.6072 70.0238 22.0603 68.4313 19.7462C66.9967 17.6648 64.8824 16.0901 62.4113 15.5287C59.9813 14.981 56.9129 15.2206 53.7897 17.8634C53.2817 18.2947 52.8561 18.815 52.506 19.3765C51.751 20.6088 50.3575 22.1356 47.3029 23.2721C46.8292 23.4501 46.383 23.6897 45.9918 24.0115C44.7699 25.0316 42.6488 27.38 45.374 29.8173C45.7515 30.1528 46.2046 30.3787 46.6988 30.4951C49.0945 31.0771 52.9934 31.9466 54.4075 32.2615C54.8605 32.3642 55.2998 32.5422 55.6842 32.8092C56.6933 33.5144 58.375 35.1918 58.375 38.5466C58.375 41.9014 58.375 44.7084 60.4343 49.5009C61.8072 52.9242 63.8665 57.0321 62.4936 61.8246C61.1208 66.6171 59.7479 72.0943 59.7479 72.0943C59.7479 72.0943 56.254 72.6762 55.7048 76.5103C55.6224 77.0648 56.048 77.5715 56.6109 77.5715H62.5005C62.5005 77.5715 64.5598 77.5715 65.9327 74.1482C67.8616 70.3005 70.3945 65.8435 70.7034 65.3026C70.8681 68.4383 72.6666 70.5675 74.2866 71.8615L74.1699 72.0943C70.7377 72.7789 69.8865 74.4358 69.1109 76.3665C68.8775 76.9484 69.3099 77.5715 69.9346 77.5715H87.8986C90.1638 77.5715 91.2346 77.0717 92.7311 76.1885C93.2939 75.8599 94.001 75.8667 94.5364 76.2433C98.5864 79.0366 105.869 74.025 107.798 72.1011C109.659 70.4169 109.151 68.5615 108.334 67.3018L108.341 67.3155Z" fill="white"/>
<path fill-rule="evenodd" clip-rule="evenodd" d="M62.6154 57.1946C60.5492 54.682 54.0212 51.7791 52.1472 50.8822C50.6508 50.2523 50.8087 47.589 51.0558 45.7473C51.2274 44.4807 51.1588 43.1936 50.8224 41.9544C50.1772 39.5787 49.5869 39.0309 48.9141 37.737C47.7541 35.5598 46.2027 34.704 45.3447 34.3753C45.0427 34.2589 44.7132 34.478 44.7132 34.8067V36.1896C44.1366 35.5803 43.5668 35.2585 43.1481 35.0874C42.8461 34.9641 42.5166 35.1901 42.5166 35.5187V38.7023C42.5166 38.7023 42.1322 38.8324 41.2879 39.2158C40.4504 39.5992 39.2835 40.8247 38.7069 41.7284C38.1234 42.6322 37.6704 43.3374 36.8329 43.9809C36.1877 44.4944 34.8972 45.0148 35.6042 46.8154C36.1877 48.5544 36.4416 49.1363 36.4416 49.1363C36.4416 49.1363 36.881 50.1222 37.7115 50.5809C37.8626 50.6631 38.0273 50.7042 38.192 50.7316C39.3178 50.9164 42.3175 51.2382 41.6723 53.7098C40.8348 56.3525 39.4139 58.1531 40.6357 64.404C40.9446 66.2046 41.1986 69.0116 40.1209 72.606C40.0248 72.9347 39.7777 73.2017 39.4619 73.3249C38.5215 73.6878 36.7986 74.1807 36.6338 76.8235C36.6064 77.2548 36.9633 77.6177 37.3958 77.6177H57.3642L63.5832 68.2106L62.5948 57.1946H62.6154Z" fill="white"/>
<path d="M64.5168 23.5049L65.4916 27.7087L66.5761 32.4053C66.5761 32.4053 67.2626 36.5132 70.6948 35.1439C71.7725 34.6031 74.1201 33.2201 74.4152 30.3309C74.5594 28.8794 74.0926 27.4348 73.2277 26.2572C72.0333 24.6209 69.9809 22.074 68.3883 19.7599C66.9537 17.6786 64.8395 16.1039 62.3683 15.5425C59.8971 14.9811 56.87 15.2344 53.7467 17.8771C53.2387 18.3084 52.8131 18.8288 52.4631 19.3902C51.708 20.6226 50.3145 22.1493 47.2599 23.2858C46.7863 23.4638 46.3401 23.7035 45.9488 24.0252C44.727 25.0454 42.6059 27.3937 45.331 29.8311C45.7085 30.1665 46.1616 30.3925 46.6558 30.5089C49.0515 31.0908 52.9504 31.9603 54.3645 32.2752C54.8175 32.3779 55.2568 32.556 55.6413 32.823C56.6503 33.5282 58.3321 35.2055 58.3321 38.5603C58.3321 41.9151 58.3321 44.7221 60.3914 49.5147C61.7642 52.9379 63.8235 57.0458 62.4507 61.8383C61.0778 66.6309 59.7049 72.108 59.7049 72.108C59.7049 72.108 56.211 72.69 55.6618 76.524C55.5795 77.0786 56.0051 77.5852 56.5679 77.5852H62.4575C62.4575 77.5852 64.5168 77.5852 65.8897 74.162C67.949 70.0541 70.6948 65.2616 70.6948 65.2616" stroke="#1D1E1E" stroke-width="1.4" stroke-linecap="round" stroke-linejoin="round"/>
<path d="M73.8192 32.2539C73.8192 32.2539 75.5009 32.4045 80.306 37.8817C84.3765 43.0987 90.9045 51.2597 92.8128 53.6423C93.0668 53.9641 93.3276 54.2722 93.6091 54.5734C94.7142 55.7442 98.874 60.9475 97.0069 70.9981C96.8971 71.5801 97.4325 72.1004 98.0091 71.9635C99.4575 71.6143 101.407 70.5942 102.958 68.013C103.453 67.0271 103.947 66.0344 105.224 65.8222C106.5 65.6099 107.626 66.2809 108.299 67.3215C109.116 68.5813 109.624 70.4367 107.763 72.1209C105.834 74.0448 98.5514 79.0564 94.5014 76.263C93.966 75.8933 93.2521 75.8796 92.6961 76.2083C91.1928 77.0983 90.122 77.5913 87.8636 77.5913H69.8996C69.275 77.5913 68.8425 76.9614 69.0759 76.3863C69.8516 74.4556 70.7027 72.7987 74.1349 72.1141" stroke="#1D1E1E" stroke-width="1.4" stroke-linecap="round" stroke-linejoin="round"/>
<path d="M76.8746 73.4823C76.8746 73.4823 70.0103 70.7437 70.6967 63.8973C70.6967 63.2126 72.0696 57.0508 80.3068 57.0508" stroke="#1D1E1E" stroke-width="1.4" stroke-linecap="round" stroke-linejoin="round"/>
<path d="M44.5273 38.6549V34.7592C44.5273 34.4374 44.85 34.2115 45.1589 34.3279C46.0169 34.6497 47.5682 35.5123 48.7283 37.6895C49.401 38.9835 49.9982 39.5312 50.6366 41.9069C50.973 43.1393 51.0347 44.4333 50.87 45.6999C50.6229 47.5416 50.465 50.2049 51.9614 50.8347C53.8354 51.7385 60.5487 54.6825 62.6217 57.1951" stroke="#1D1E1E" stroke-width="1.4" stroke-linecap="round" stroke-linejoin="round"/>
<path d="M44.9137 77.5761H37.2188C36.7863 77.5761 36.4294 77.2133 36.4568 76.7819C36.6216 74.1392 38.3445 73.6463 39.2849 73.2834C39.6007 73.1602 39.8478 72.8931 39.9439 72.5645C41.0147 68.9701 40.7676 66.1562 40.4587 64.3624C39.23 58.1116 40.6509 56.311 41.4952 53.6682C42.1405 51.2035 39.1408 50.8749 38.015 50.69C37.8434 50.6626 37.6787 50.6216 37.5345 50.5394C36.7039 50.0807 36.2646 49.0948 36.2646 49.0948C36.2646 49.0948 36.0038 48.5129 35.4272 46.7738C34.7133 44.9664 36.0106 44.4529 36.6559 43.9394C37.4933 43.2958 37.9464 42.5838 38.5299 41.6869C39.1133 40.79 40.2734 39.5577 41.1108 39.1743C41.9483 38.7909 42.3396 38.6608 42.3396 38.6608V35.4772C42.3396 35.1485 42.669 34.9226 42.9711 35.0458C43.3898 35.217 43.9595 35.5388 44.5361 36.1481" stroke="#1D1E1E" stroke-width="1.4" stroke-linecap="round" stroke-linejoin="round"/>
<path d="M49.7446 74.0173C49.7446 74.0173 44.4453 71.6963 44.4453 66.671C44.4453 65.7057 45.0906 60.6119 51.9412 60.6804" stroke="#1D1E1E" stroke-width="1.4" stroke-linecap="round" stroke-linejoin="round"/>
<path d="M57.1953 77.5765H44.9219C44.9219 77.5765 45.1141 73.6466 48.6698 73.5781" stroke="#1D1E1E" stroke-width="1.4" stroke-linecap="round" stroke-linejoin="round"/>
<path fill-rule="evenodd" clip-rule="evenodd" d="M66.267 32.5296L57.611 37.0414C57.3571 37.1715 57.0482 37.0825 56.8972 36.8429L55.9979 35.3503C55.84 35.0833 55.9361 34.741 56.2107 34.5972L65.6355 29.8047" fill="#318FCC"/>
<path d="M66.267 32.5296L57.611 37.0414C57.3571 37.1715 57.0482 37.0825 56.8972 36.8429L55.9979 35.3503C55.84 35.0833 55.9361 34.741 56.2107 34.5972L65.6355 29.8047" stroke="#1D1E1E" stroke-width="1.4" stroke-miterlimit="10" stroke-linecap="round"/>
<path fill-rule="evenodd" clip-rule="evenodd" d="M50.5356 48.9062L41.4609 52.0625C41.4609 52.0625 41.914 52.9936 41.6875 53.7193L51.3181 50.5152C51.3181 50.5152 50.6386 49.9675 50.5425 48.9062H50.5356Z" fill="#318FCC" stroke="#1D1E1E" stroke-width="1.4" stroke-miterlimit="10" stroke-linecap="round"/>
<path d="M41.749 55.2236C42.2684 55.2236 42.6894 54.8036 42.6894 54.2856C42.6894 53.7676 42.2684 53.3477 41.749 53.3477C41.2296 53.3477 40.8086 53.7676 40.8086 54.2856C40.8086 54.8036 41.2296 55.2236 41.749 55.2236Z" fill="white" stroke="#1D1E1E" stroke-width="1.4" stroke-miterlimit="10" stroke-linecap="round"/>
<path d="M41.7646 43.1466C42.1437 43.1466 42.451 42.8401 42.451 42.462C42.451 42.0839 42.1437 41.7773 41.7646 41.7773C41.3855 41.7773 41.0781 42.0839 41.0781 42.462C41.0781 42.8401 41.3855 43.1466 41.7646 43.1466Z" fill="#1D1E1E"/>
<path d="M54.9286 22.7521C55.3077 22.7521 55.6151 22.4456 55.6151 22.0675C55.6151 21.6893 55.3077 21.3828 54.9286 21.3828C54.5495 21.3828 54.2422 21.6893 54.2422 22.0675C54.2422 22.4456 54.5495 22.7521 54.9286 22.7521Z" fill="#1D1E1E"/>
</svg>
