<svg width="122" height="91" viewBox="0 0 122 91" fill="none" xmlns="http://www.w3.org/2000/svg">
<path d="M70.9021 12H50.2693C49.3096 12.0039 48.3601 12.1986 47.4751 12.573C46.5901 12.9473 45.787 13.494 45.1118 14.1817C44.4366 14.8694 43.9026 15.6846 43.5402 16.5807C43.1779 17.4768 42.9943 18.4361 43.0001 19.4038V69.5279C43 71.4787 43.7635 73.3508 45.1247 74.7372C46.4859 76.1236 48.3347 76.9122 50.2693 76.9317H70.9021C71.8618 76.9279 72.8113 76.7332 73.6963 76.3588C74.5813 75.9845 75.3843 75.4378 76.0596 74.7501C76.7348 74.0624 77.2688 73.2471 77.6311 72.351C77.9935 71.4549 78.177 70.4956 78.1712 69.5279V19.4038C78.177 18.4361 77.9935 17.4768 77.6311 16.5807C77.2688 15.6846 76.7348 14.8694 76.0596 14.1817C75.3843 13.494 74.5813 12.9473 73.6963 12.573C72.8113 12.1986 71.8618 12.0039 70.9021 12Z" fill="white"/>
<path d="M70.9021 12H50.2693C49.3096 12.0039 48.3601 12.1986 47.4751 12.573C46.5901 12.9473 45.787 13.494 45.1118 14.1817C44.4366 14.8694 43.9026 15.6846 43.5402 16.5807C43.1779 17.4768 42.9943 18.4361 43.0001 19.4038V69.5279C43 71.4787 43.7635 73.3508 45.1247 74.7372C46.4859 76.1236 48.3347 76.9122 50.2693 76.9317H70.9021C71.8618 76.9279 72.8113 76.7332 73.6963 76.3588C74.5813 75.9845 75.3844 75.4378 76.0596 74.7501C76.7348 74.0624 77.2688 73.2471 77.6312 72.351C77.9935 71.4549 78.177 70.4956 78.1712 69.5279V19.4038C78.177 18.4361 77.9935 17.4768 77.6312 16.5807C77.2688 15.6846 76.7348 14.8694 76.0596 14.1817C75.3844 13.494 74.5813 12.9473 73.6963 12.573C72.8113 12.1986 71.8618 12.0039 70.9021 12V12Z" stroke="#1D1E1E" stroke-width="1.4" stroke-linecap="round" stroke-linejoin="round"/>
<path d="M49.0801 28.017L54.9577 22.1362" stroke="#1D1E1E" stroke-width="1.4" stroke-linecap="round" stroke-linejoin="round"/>
<path d="M51.1172 31.8391L59.2337 23.7227" stroke="#1D1E1E" stroke-width="1.4" stroke-linecap="round" stroke-linejoin="round"/>
<path d="M60.1352 72.4232C61.6294 72.4232 62.8407 71.4138 62.8407 70.1686C62.8407 68.9235 61.6294 67.9141 60.1352 67.9141C58.641 67.9141 57.4297 68.9235 57.4297 70.1686C57.4297 71.4138 58.641 72.4232 60.1352 72.4232Z" fill="#318FCC" stroke="#1D1E1E" stroke-width="1.4" stroke-miterlimit="10" stroke-linecap="round"/>
<path d="M54.498 12H66.6769C67.0937 12.0043 67.4924 12.1957 67.7872 12.533C68.082 12.8703 68.2492 13.3266 68.253 13.8037C68.2492 14.2807 68.082 14.737 67.7872 15.0743C67.4924 15.4116 67.0937 15.603 66.6769 15.6073H54.498C54.0811 15.603 53.6824 15.4116 53.3876 15.0743C53.0929 14.737 52.9256 14.2807 52.9219 13.8037C52.9256 13.3266 53.0929 12.8703 53.3876 12.533C53.6824 12.1957 54.0811 12.0043 54.498 12Z" fill="#318FCC" stroke="#1D1E1E" stroke-width="1.4" stroke-miterlimit="10" stroke-linecap="round"/>
</svg>
