<svg width="125" height="103" viewBox="0 0 125 103" fill="none" xmlns="http://www.w3.org/2000/svg">
<g clip-path="url(#clip0_987_3506)">
<path d="M11.4084 75.6033H15.044C15.7752 75.6033 16.4764 75.893 16.9934 76.4087C17.5104 76.9243 17.8009 77.6238 17.8009 78.353V83.1651C17.8009 84.1487 17.4091 85.0921 16.7118 85.7876C16.0145 86.4831 15.0687 86.8739 14.0826 86.8739H12.3595C11.374 86.873 10.4291 86.4818 9.73253 85.7864C9.03596 85.091 8.64468 84.1481 8.64468 83.1651V78.353C8.64468 77.6238 8.93514 76.9243 9.45214 76.4087C9.96915 75.893 10.6704 75.6033 11.4015 75.6033H11.4084Z" fill="white" stroke="#1D1E1E" stroke-width="1.59091" stroke-miterlimit="10"/>
<path d="M53.25 75.6033H56.8856C57.6168 75.6033 58.318 75.893 58.835 76.4087C59.352 76.9244 59.6425 77.6238 59.6425 78.3531V83.1651C59.6425 84.1488 59.2507 85.0921 58.5534 85.7876C57.8561 86.4831 56.9103 86.8739 55.9242 86.8739H54.2011C53.215 86.8739 52.2692 86.4831 51.5719 85.7876C50.8746 85.0921 50.4828 84.1488 50.4828 83.1651V78.3531C50.4828 77.9911 50.5545 77.6327 50.6937 77.2984C50.8329 76.9641 51.0369 76.6605 51.294 76.405C51.5511 76.1495 51.8562 75.9472 52.1919 75.8096C52.5275 75.6721 52.8871 75.6019 53.25 75.6033Z" fill="white" stroke="#1D1E1E" stroke-width="1.59091" stroke-miterlimit="10"/>
<path d="M61.4549 61.9644C61.5775 61.8101 61.6848 61.6444 61.7754 61.4695C62.0864 60.8682 62.2191 60.191 62.1579 59.5171C62.0903 58.9132 61.8602 58.3388 61.492 57.8547C61.1237 57.3706 60.631 56.9949 60.0661 56.7674C59.5576 56.5648 59.0071 56.4891 58.4625 56.5469C57.918 56.6048 57.3958 56.7943 56.9414 57.0992C56.487 57.404 56.1141 57.815 55.8551 58.2963C55.5961 58.7776 55.4589 59.3146 55.4553 59.8609C55.4556 59.9757 55.4625 60.0905 55.476 60.2046C55.5573 60.8575 55.5223 61.5196 55.3726 62.1604L55.1314 63.1365C55.1074 63.2301 55.1089 63.3284 55.1357 63.4213C55.1625 63.5142 55.2136 63.5982 55.2839 63.6647C55.3541 63.7313 55.4409 63.7779 55.5352 63.7999C55.6296 63.8218 55.7281 63.8183 55.8206 63.7896L57.2576 63.3874C57.7665 63.2596 58.2906 63.2018 58.8152 63.2156C59.3194 63.2108 59.8165 63.0964 60.2718 62.8803C60.7271 62.6642 61.1297 62.3517 61.4514 61.9644H61.4549Z" fill="white" stroke="#1D1E1E" stroke-width="1.59091" stroke-miterlimit="10" stroke-linecap="round"/>
<path d="M5.88061 61.9643C5.75803 61.8101 5.65069 61.6443 5.56012 61.4694C5.24807 60.8684 5.11419 60.1912 5.17416 59.5171C5.25472 58.747 5.59954 58.0284 6.15027 57.4829C6.701 56.9373 7.42381 56.5983 8.19635 56.5233C8.66238 56.4798 9.13238 56.5337 9.57635 56.6816C10.0203 56.8294 10.4285 57.068 10.7748 57.3821C11.1211 57.6961 11.398 58.0788 11.5877 58.5056C11.7775 58.9324 11.8759 59.3939 11.8767 59.8608C11.8764 59.9757 11.8695 60.0904 11.8561 60.2045C11.7747 60.8574 11.8097 61.5195 11.9594 62.1603L12.2041 63.1364C12.2266 63.2283 12.2247 63.3243 12.1986 63.4152C12.1725 63.506 12.1231 63.5885 12.0552 63.6545C11.9873 63.7205 11.9034 63.7676 11.8116 63.7913C11.7199 63.815 11.6236 63.8144 11.5321 63.7895L10.0917 63.3874C9.57278 63.2563 9.03804 63.1985 8.50305 63.2155C7.9722 63.2149 7.44904 63.0889 6.97645 62.8477C6.55181 62.6352 6.17806 62.3339 5.88061 61.9643Z" fill="white" stroke="#1D1E1E" stroke-width="1.59091" stroke-miterlimit="10" stroke-linecap="round"/>
<path d="M56.465 61.6825L52.44 50.6388C51.7576 49.1715 50.667 47.9305 49.298 47.0634C47.9289 46.1963 46.3391 45.7397 44.7174 45.7477H22.4145C20.9323 45.7421 19.4746 46.1236 18.1862 46.8545C16.8978 47.5854 15.8238 48.6401 15.071 49.9136L10.0259 62.0297L56.465 61.6825Z" fill="#318FCC" stroke="#1D1E1E" stroke-width="1.59091" stroke-miterlimit="10"/>
<path d="M58.5426 80.1987C42.0411 81.0856 25.5036 81.0856 9.00209 80.1987C7.02405 80.1987 5.41818 78.8685 5.41818 77.229V68.8628C5.41818 64.4529 9.72921 60.8782 15.043 60.8782H52.5017C57.8155 60.8782 62.1265 64.4529 62.1265 68.8628V77.229C62.1265 78.8685 60.5379 80.1987 58.5426 80.1987Z" fill="white" stroke="#1D1E1E" stroke-width="1.59091" stroke-miterlimit="10"/>
<path d="M45.8308 73.5891C37.9895 74.1474 30.1184 74.1474 22.277 73.5891H45.8308Z" fill="white"/>
<path d="M45.8308 73.5891C37.9895 74.1474 30.1184 74.1474 22.277 73.5891" stroke="#1D1E1E" stroke-width="1.59091" stroke-miterlimit="10" stroke-linecap="round"/>
<path d="M16.0579 67.2094H13.694C12.4902 67.2094 11.5143 68.1828 11.5143 69.3835V70.0641C11.5143 71.2648 12.4902 72.2382 13.694 72.2382H16.0579C17.2618 72.2382 18.2377 71.2648 18.2377 70.0641V69.3835C18.2377 68.1828 17.2618 67.2094 16.0579 67.2094Z" fill="#318FCC" stroke="#1D1E1E" stroke-width="1.59091" stroke-miterlimit="10"/>
<path d="M54.3565 66.498H51.6582C50.2841 66.498 49.1701 67.6091 49.1701 68.9797V69.7565C49.1701 71.1271 50.2841 72.2382 51.6582 72.2382H54.3565C55.7306 72.2382 56.8445 71.1271 56.8445 69.7565V68.9797C56.8445 67.6091 55.7306 66.498 54.3565 66.498Z" fill="#318FCC" stroke="#1D1E1E" stroke-width="1.59091" stroke-miterlimit="10"/>
<rect x="43.3867" y="79.0328" width="50.2981" height="8.04769" fill="white"/>
<path d="M37.0926 72.9316H41.6247C42.5362 72.9316 43.4103 73.2928 44.0548 73.9356C44.6993 74.5785 45.0614 75.4504 45.0614 76.3595V82.3582C45.0614 83.5843 44.573 84.7603 43.7038 85.6273C42.8345 86.4944 41.6555 86.9815 40.4262 86.9815H38.2783C37.0497 86.9803 35.8718 86.4927 35.0035 85.6258C34.1352 84.7589 33.6474 83.5836 33.6474 82.3582V76.3595C33.6474 75.4504 34.0095 74.5785 34.654 73.9356C35.2985 73.2928 36.1726 72.9316 37.0841 72.9316H37.0926Z" fill="white" stroke="#1D1E1E" stroke-width="1.59091" stroke-miterlimit="10"/>
<path d="M89.2517 72.9317H93.7838C94.6952 72.9317 95.5694 73.2928 96.2139 73.9357C96.8584 74.5785 97.2204 75.4504 97.2204 76.3595V82.3582C97.2204 83.5844 96.7321 84.7603 95.8628 85.6273C94.9936 86.4944 93.8146 86.9815 92.5853 86.9815H90.4373C89.208 86.9815 88.029 86.4944 87.1598 85.6273C86.2905 84.7603 85.8022 83.5844 85.8022 82.3582V76.3595C85.8022 75.9083 85.8915 75.4615 86.065 75.0447C86.2385 74.628 86.4928 74.2496 86.8133 73.9311C87.1338 73.6126 87.5141 73.3604 87.9326 73.1889C88.351 73.0174 88.7993 72.93 89.2517 72.9317Z" fill="white" stroke="#1D1E1E" stroke-width="1.59091" stroke-miterlimit="10"/>
<path d="M99.4806 55.9296C99.6334 55.7373 99.7672 55.5307 99.8801 55.3126C100.268 54.5631 100.433 53.7188 100.357 52.8788C100.273 52.126 99.9859 51.41 99.5268 50.8065C99.0678 50.203 98.4536 49.7347 97.7494 49.451C97.1154 49.1985 96.4292 49.1041 95.7503 49.1762C95.0715 49.2483 94.4206 49.4846 93.8541 49.8646C93.2877 50.2447 92.8228 50.757 92.5 51.3569C92.1771 51.9569 92.006 52.6264 92.0016 53.3073C92.002 53.4505 92.0106 53.5936 92.0273 53.7358C92.1288 54.5497 92.0852 55.3751 91.8985 56.1739L91.5978 57.3907C91.5679 57.5074 91.5697 57.63 91.6031 57.7457C91.6366 57.8615 91.7003 57.9662 91.7879 58.0492C91.8754 58.1322 91.9836 58.1903 92.1012 58.2177C92.2188 58.245 92.3416 58.2406 92.4569 58.2049L94.2483 57.7035C94.8827 57.5441 95.536 57.4721 96.19 57.4893C96.8185 57.4833 97.4382 57.3407 98.0058 57.0713C98.5734 56.8019 99.0752 56.4123 99.4763 55.9296H99.4806Z" fill="white" stroke="#1D1E1E" stroke-width="1.59091" stroke-miterlimit="10" stroke-linecap="round"/>
<path d="M30.2014 55.9295C30.0485 55.7372 29.9147 55.5306 29.8018 55.3126C29.4128 54.5634 29.2459 53.7191 29.3207 52.8788C29.4211 51.9189 29.851 51.0231 30.5375 50.343C31.2241 49.6629 32.1251 49.2403 33.0881 49.1467C33.6691 49.0925 34.255 49.1597 34.8084 49.3441C35.3619 49.5284 35.8707 49.8258 36.3024 50.2173C36.7342 50.6088 37.0793 51.0858 37.3158 51.6179C37.5523 52.1499 37.675 52.7253 37.6761 53.3072C37.6756 53.4504 37.667 53.5935 37.6503 53.7357C37.5489 54.5496 37.5925 55.375 37.7792 56.1738L38.0842 57.3907C38.1123 57.5051 38.1099 57.6249 38.0773 57.7381C38.0448 57.8514 37.9832 57.9542 37.8986 58.0365C37.814 58.1187 37.7093 58.1775 37.5949 58.207C37.4806 58.2365 37.3605 58.2357 37.2465 58.2048L35.4508 57.7034C34.804 57.5401 34.1374 57.468 33.4705 57.4892C32.8087 57.4885 32.1566 57.3314 31.5674 57.0308C31.0381 56.7658 30.5721 56.3902 30.2014 55.9295Z" fill="white" stroke="#1D1E1E" stroke-width="1.59091" stroke-miterlimit="10" stroke-linecap="round"/>
<path d="M93.259 55.5783L88.2415 41.8112C87.3907 39.9821 86.0312 38.435 84.3246 37.3542C82.618 36.2733 80.6361 35.704 78.6146 35.714H50.812C48.9643 35.707 47.1471 36.1827 45.541 37.0938C43.9349 38.0049 42.5961 39.3196 41.6576 40.9072L35.3685 56.011L93.259 55.5783Z" fill="#318FCC" stroke="#1D1E1E" stroke-width="1.59091" stroke-miterlimit="10"/>
<path d="M95.8499 78.6604C75.2792 79.7659 54.6638 79.7659 34.0932 78.6604C31.6274 78.6604 29.6255 77.0022 29.6255 74.9583V64.5292C29.6255 59.0318 34.9996 54.5756 41.6238 54.5756H88.3193C94.9435 54.5756 100.318 59.0318 100.318 64.5292V74.9583C100.318 77.0022 98.3372 78.6604 95.8499 78.6604Z" fill="white" stroke="#1D1E1E" stroke-width="1.59091" stroke-miterlimit="10"/>
<path d="M80.0026 70.4208C70.2277 71.1149 60.4156 71.1149 50.6407 70.4208H80.0026Z" fill="white"/>
<path d="M80.0026 70.4208C70.2277 71.1149 60.4156 71.1149 50.6407 70.4208" stroke="#1D1E1E" stroke-width="1.59091" stroke-miterlimit="10" stroke-linecap="round"/>
<path d="M43.6905 61.5812H40.3268C38.6139 61.5812 37.2253 62.9662 37.2253 64.6748V65.6432C37.2253 67.3517 38.6139 68.7368 40.3268 68.7368H43.6905C45.4034 68.7368 46.792 67.3517 46.792 65.6432V64.6748C46.792 62.9662 45.4034 61.5812 43.6905 61.5812Z" fill="#318FCC" stroke="#1D1E1E" stroke-width="1.59091" stroke-miterlimit="10"/>
<path d="M90.6307 61.5812H87.2671C85.5541 61.5812 84.1655 62.9662 84.1655 64.6748V65.6432C84.1655 67.3517 85.5541 68.7368 87.2671 68.7368H90.6307C92.3437 68.7368 93.7323 67.3517 93.7323 65.6432V64.6748C93.7323 62.9662 92.3437 61.5812 90.6307 61.5812Z" fill="#318FCC" stroke="#1D1E1E" stroke-width="1.59091" stroke-miterlimit="10"/>
<path d="M1.91046 86.7288H108.455H123.091" fill="white"/>
<path d="M1.91046 86.7288H108.455H123.091" stroke="#1D1E1E" stroke-width="1.59091" stroke-miterlimit="10" stroke-linecap="round"/>
<path d="M114.175 12.6361H108.225C107.24 12.6361 106.442 13.4322 106.442 14.4143C106.442 15.3964 107.24 16.1925 108.225 16.1925H114.175C115.159 16.1925 115.957 15.3964 115.957 14.4143C115.957 13.4322 115.159 12.6361 114.175 12.6361Z" fill="white" stroke="#1D1E1E" stroke-width="1.59091" stroke-miterlimit="10" stroke-linecap="round"/>
<path d="M111.197 86.1245V34.1157" stroke="#1D1E1E" stroke-width="1.59091" stroke-miterlimit="10" stroke-linecap="round"/>
<path d="M116.094 15.2284H106.3C104.333 15.2284 102.738 16.8187 102.738 18.7805V45.3162C102.738 47.2779 104.333 48.8682 106.3 48.8682H116.094C118.061 48.8682 119.655 47.2779 119.655 45.3162V18.7805C119.655 16.8187 118.061 15.2284 116.094 15.2284Z" fill="white" stroke="#1D1E1E" stroke-width="1.59091" stroke-miterlimit="10"/>
<path d="M111.198 25.0448C112.899 25.0448 114.278 23.6693 114.278 21.9726C114.278 20.2759 112.899 18.9004 111.198 18.9004C109.497 18.9004 108.118 20.2759 108.118 21.9726C108.118 23.6693 109.497 25.0448 111.198 25.0448Z" fill="#318FCC" stroke="#1D1E1E" stroke-width="1.59091" stroke-miterlimit="10"/>
<path d="M111.198 35.1227C112.899 35.1227 114.278 33.7472 114.278 32.0505C114.278 30.3537 112.899 28.9783 111.198 28.9783C109.497 28.9783 108.118 30.3537 108.118 32.0505C108.118 33.7472 109.497 35.1227 111.198 35.1227Z" fill="#318FCC" stroke="#1D1E1E" stroke-width="1.59091" stroke-miterlimit="10"/>
<path d="M111.198 45.2005C112.899 45.2005 114.278 43.8251 114.278 42.1283C114.278 40.4316 112.899 39.0562 111.198 39.0562C109.497 39.0562 108.118 40.4316 108.118 42.1283C108.118 43.8251 109.497 45.2005 111.198 45.2005Z" fill="#318FCC" stroke="#1D1E1E" stroke-width="1.59091" stroke-miterlimit="10"/>
</g>
<defs>
<clipPath id="clip0_987_3506">
<rect width="122.727" height="76.1364" fill="white" transform="translate(1.13635 11.3636)"/>
</clipPath>
</defs>
</svg>
