<svg width="90" height="90" viewBox="0 0 90 90" fill="none" xmlns="http://www.w3.org/2000/svg">
<path d="M52.8578 17.8672C53.6717 18.0106 54.4074 18.426 54.9361 19.0405C55.4648 19.655 55.7528 20.4295 55.7496 21.2283V42.5492C55.7987 48.5507 54.0859 54.4429 50.8094 59.5432C47.5329 64.6434 42.8269 68.7429 37.2365 71.3668C35.0256 72.3636 32.5503 73.8007 30.378 73.8007C28.2056 73.8007 25.7268 72.3636 23.514 71.3668C17.9245 68.7419 13.2192 64.6421 9.94284 59.5421C6.66649 54.4421 4.9531 48.5505 5.00098 42.5492V21.2283C4.99908 20.429 5.28815 19.6544 5.81775 19.04C6.34735 18.4256 7.08375 18.0105 7.89821 17.8672C14.222 16.7819 21.7789 14.664 28.4356 10.5495C29.0143 10.1907 29.6876 10 30.3753 10C31.063 10 31.7362 10.1907 32.315 10.5495C38.9771 14.6798 46.534 16.7871 52.8578 17.8672Z" fill="#318FCC" stroke="#1D1E1E" stroke-width="1.03321" stroke-miterlimit="10"/>
<g clip-path="url(#clip0_985_6487)">
<path d="M31.3472 79.2509H56.6608C61.1811 79.1218 66.218 74.3432 67.5096 74.3432H70.8675V50.1661C69.9634 50.1661 64.6682 50.3211 62.4727 48.3838C60.2771 46.4465 58.469 42.8303 55.7568 40.6347C53.4321 38.7491 47.4911 36.7602 45.2955 32.1107C43.6941 28.7011 44.004 23.3284 39.3546 23.7159C33.1811 24.2325 36.3066 38.5683 39.3804 43.6052C39.7162 44.1735 39.5354 44.8709 38.8896 44.9484C38.0889 45.0517 36.9265 45.155 35.2476 45.155H35.0926H26.3361C23.9597 45.155 22.0483 47.0664 22.0483 49.417C22.0483 51.7676 23.9856 53.679 26.3361 53.679H37.0299H34.1885H23.469C21.1184 53.679 19.207 55.5904 19.207 57.941C19.207 60.2915 21.1184 62.203 23.469 62.203H33.6977H37.5465H36.9007H26.5686C24.218 62.203 22.3066 64.1144 22.3066 66.465C22.3066 68.8155 24.218 70.727 26.5686 70.727H36.6424H37.9339H29.4099C27.0594 70.727 25.1479 72.6384 25.1479 74.989C25.1479 77.3395 27.0594 79.2509 29.4099 79.2509H37.6756" fill="white"/>
<path d="M31.3472 79.251H56.6608C61.1811 79.1218 66.218 74.3432 67.5096 74.3432H70.8675V50.1661C69.9634 50.1661 64.6682 50.3211 62.4727 48.3838C60.2771 46.4465 58.469 42.8303 55.7568 40.6347C53.4321 38.7491 47.4911 36.7602 45.2955 32.1107C43.6941 28.7011 44.004 23.3284 39.3546 23.7159C33.1811 24.2325 36.3066 38.5683 39.3804 43.6052C39.7162 44.1735 39.5354 44.8709 38.8896 44.9484C38.0889 45.0517 36.9265 45.155 35.2476 45.155H35.0926H26.3361C23.9597 45.155 22.0483 47.0664 22.0483 49.417C22.0483 51.7676 23.9856 53.679 26.3361 53.679H37.0298H34.1885H23.469C21.1184 53.679 19.207 55.5904 19.207 57.941C19.207 60.2915 21.1184 62.203 23.469 62.203H33.6977H37.5465H36.9007H26.5686C24.218 62.203 22.3066 64.1144 22.3066 66.465C22.3066 68.8155 24.218 70.727 26.5686 70.727H36.6424H37.9339H29.4099C27.0594 70.727 25.1479 72.6384 25.1479 74.989C25.1479 77.3395 27.0594 79.251 29.4099 79.251H37.6756" stroke="#1D1E1E" stroke-width="1.03321" stroke-miterlimit="10" stroke-linecap="round" stroke-linejoin="round"/>
</g>
<path d="M80.8199 46.4207H71.8282C69.8711 46.4207 68.2845 48.0072 68.2845 49.9643V73.9753C68.2845 75.9324 69.8711 77.5189 71.8282 77.5189H80.8199C82.777 77.5189 84.3636 75.9324 84.3636 73.9753V49.9643C84.3636 48.0072 82.777 46.4207 80.8199 46.4207Z" fill="#318FCC" stroke="#1D1E1E" stroke-width="1.03321" stroke-miterlimit="10" stroke-linecap="round"/>
<defs>
<clipPath id="clip0_985_6487">
<rect width="52.6937" height="56.8266" fill="white" transform="translate(18.6903 23.1733)"/>
</clipPath>
</defs>
</svg>
