<svg width="90" height="90" viewBox="0 0 90 90" fill="none" xmlns="http://www.w3.org/2000/svg">
<path d="M41.3435 15.5965L20.859 6.54536C18.8381 5.65245 16.4697 6.44404 15.3919 8.37264L4.41905 28.007C3.826 29.0682 3.71209 30.3315 4.10575 31.4817L20.0855 78.17C20.8511 80.4069 23.2851 81.5996 25.522 80.834L57.4093 69.9201C59.6627 69.1488 60.8534 66.6866 60.0586 64.4414L43.6489 18.0837C43.2556 16.9727 42.4216 16.0729 41.3435 15.5965Z" fill="#318FCC" stroke="#1D1E1E" stroke-width="1.03"/>
<circle cx="24.2929" cy="21.9509" r="4.32685" transform="rotate(26.1058 24.2929 21.9509)" fill="white" stroke="#1D1E1E" stroke-width="1.03"/>
<circle cx="60.0179" cy="51.0208" r="24.975" fill="white" stroke="#1D1E1E" stroke-width="1.05"/>
<path d="M54.5048 55.4498L50.4664 51.4114C49.3992 50.3443 47.6712 50.3374 46.5956 51.396C45.4662 52.5075 45.5084 54.3414 46.6878 55.3998L55.0303 62.8867C55.613 63.4096 56.5021 63.3888 57.0597 62.8393L74.4979 45.6539C75.6143 44.5536 75.6391 42.7603 74.5534 41.6296C73.4419 40.472 71.5964 40.4533 70.4616 41.5881L56.5999 55.4498C56.0214 56.0284 55.0833 56.0284 54.5048 55.4498Z" fill="#318FCC" stroke="#1D1E1E" stroke-width="0.944856"/>
</svg>
