<svg width="89" height="90" viewBox="0 0 89 90" fill="none" xmlns="http://www.w3.org/2000/svg">
<g clip-path="url(#clip0_985_6470)">
<path d="M28.6976 67.4094L35.9319 60.3943C36.5367 59.8078 37.458 59.6085 38.2986 59.6652C39.4877 59.7454 41.2593 59.6844 43.3402 59.4243C46.5841 59.0188 49.6734 55.7661 52.3234 53.5452C56.5306 49.9819 64.5507 41.3879 67.4952 38.2687L71.2781 34.4858C71.626 34.1382 71.9019 33.7255 72.0901 33.2712C72.2784 32.8169 72.3753 32.33 72.3753 31.8382C72.3753 31.3465 72.2784 30.8596 72.0901 30.4053C71.9019 29.951 71.626 29.5383 71.2781 29.1907C70.9305 28.8429 70.5178 28.5669 70.0635 28.3787C69.6092 28.1904 69.1223 28.0935 68.6306 28.0935C68.1388 28.0935 67.6519 28.1904 67.1976 28.3787C66.7433 28.5669 66.3306 28.8429 65.983 29.1907M63.4877 31.6611L67.7697 27.3791C68.1175 27.0315 68.3934 26.6187 68.5817 26.1644C68.7699 25.7102 68.8668 25.2232 68.8668 24.7315C68.8668 24.2398 68.7699 23.7528 68.5817 23.2986C68.3934 22.8443 68.1175 22.4315 67.7697 22.0839C67.4221 21.7361 67.0093 21.4602 66.5551 21.2719C66.1008 21.0837 65.6139 20.9868 65.1221 20.9868C64.6304 20.9868 64.1435 21.0837 63.6892 21.2719C63.2349 21.4602 62.8222 21.7361 62.4746 22.0839M58.9461 25.6074L63.9867 20.5768C64.3346 20.2292 64.6105 19.8164 64.7987 19.3621C64.987 18.9079 65.0839 18.4209 65.0839 17.9292C65.0839 17.4375 64.987 16.9505 64.7987 16.4963C64.6105 16.042 64.3346 15.6292 63.9867 15.2816C63.6391 14.9338 63.2264 14.6579 62.7721 14.4696C62.3178 14.2814 61.8309 14.1845 61.3392 14.1845C60.8474 14.1845 60.3605 14.2814 59.9062 14.4696C59.452 14.6579 59.0392 14.9338 58.6916 15.2816L53.6011 20.3671M56.7347 17.2366C57.0826 16.889 57.2293 16.6324 57.4175 16.1781C57.6058 15.7238 57.7027 15.2369 57.7027 14.7451C57.7027 14.2534 57.6058 13.7665 57.4175 13.3122C57.2293 12.8579 56.9533 12.4452 56.6055 12.0976C55.9026 11.3948 54.9494 11 53.9555 11C52.9615 11 52.0083 11.3948 51.3054 12.0976L47.9616 15.4364L47.6522 15.7458L12.0936 51.6787" stroke="#1D1E1E" stroke-width="1.03545" stroke-miterlimit="10" stroke-linecap="round"/>
<path d="M49.83 56.0189L61.3054 67.4943M66.0721 40.1299L77.5475 52.0466L66.0721 40.1299Z" stroke="#1D1E1E" stroke-width="1.03477" stroke-miterlimit="10" stroke-linecap="round"/>
<path d="M18.8464 28.5662L27.9385 37.2875C28.5585 37.8816 28.9172 38.6976 28.9359 39.5561C28.9513 40.1996 28.7751 40.8332 28.4297 41.3764C28.0844 41.9196 27.5854 42.3479 26.9962 42.6071C26.407 42.8662 25.7541 42.9445 25.1203 42.8319C24.4865 42.7193 23.9005 42.421 23.4366 41.9748L14.4328 33.2535C13.9379 32.6427 13.6813 31.8732 13.7105 31.0877C13.7397 30.3021 14.0528 29.5538 14.5917 28.9815C15.1306 28.4092 15.8587 28.0517 16.6411 27.9753C17.4235 27.899 18.207 28.1089 18.8464 28.5662Z" fill="white" stroke="#1D1E1E" stroke-width="1.03477"/>
<path d="M22.6861 23.0932L33.5348 33.4829C34.1563 34.0799 34.5153 34.8993 34.5327 35.761C34.5501 36.6226 34.2244 37.4559 33.6274 38.0775C33.0305 38.699 32.211 39.058 31.3494 39.0754C30.4877 39.0927 29.6544 38.7671 29.0329 38.1701L18.193 27.7717C17.5749 27.1726 17.2167 26.3548 17.1956 25.4942C17.1838 24.8533 17.3619 24.2231 17.7075 23.6831C18.0532 23.1432 18.5509 22.7176 19.1379 22.4599C19.7249 22.2023 20.3751 22.1241 21.0065 22.2352C21.6379 22.3463 22.2223 22.6418 22.6861 23.0844V23.0932Z" fill="white" stroke="#1D1E1E" stroke-width="1.03477"/>
<path d="M26.7027 17.5144L38.028 28.3631C38.3363 28.659 38.5831 29.0128 38.7544 29.4042C38.9257 29.7957 39.0181 30.2171 39.0263 30.6443C39.0345 31.0715 38.9584 31.4961 38.8022 31.8938C38.6461 32.2916 38.413 32.6546 38.1163 32.9621C37.8211 33.2701 37.4681 33.5167 37.0774 33.6879C36.6867 33.8591 36.266 33.9515 35.8395 33.9597C35.413 33.9679 34.9891 33.8918 34.5921 33.7357C34.1951 33.5797 33.8329 33.3468 33.5261 33.0503L22.2185 22.2017C21.9127 21.9074 21.6669 21.5567 21.4946 21.1689C21.3258 20.7781 21.2329 20.3587 21.221 19.9331C21.2095 19.5047 21.2846 19.0784 21.4417 18.6796C21.5958 18.2824 21.8267 17.9194 22.1214 17.6115C22.7204 16.9934 23.5382 16.6352 24.3988 16.6141C25.2554 16.5986 26.0835 16.9222 26.7027 17.5144Z" fill="white" stroke="#1D1E1E" stroke-width="1.03477"/>
<path d="M27.3734 13.4981C27.6988 13.1363 28.0878 12.8372 28.5209 12.6154C28.9101 12.4415 29.3305 12.3484 29.7567 12.3417C30.1851 12.3302 30.6114 12.4053 31.0102 12.5624C31.4135 12.726 31.7798 12.9691 32.0871 13.2774L42.3355 23.1109C42.6427 23.4093 42.8912 23.7626 43.0682 24.1525C43.238 24.543 43.3309 24.9626 43.3418 25.3884C43.3489 25.8164 43.274 26.2419 43.1211 26.6418C42.9639 27.0401 42.7333 27.4054 42.4414 27.7187C41.8424 28.3369 41.0245 28.6951 40.164 28.7162C39.7394 28.7283 39.3166 28.6566 38.9197 28.5051C38.5229 28.3537 38.1598 28.1254 37.8513 27.8335L27.5852 17.9647C27.2756 17.6707 27.0273 17.3184 26.8546 16.9279C26.682 16.5375 26.5885 16.1167 26.5795 15.6898C26.5704 15.263 26.6461 14.8386 26.802 14.4412C26.958 14.0438 27.1912 13.6813 27.4881 13.3745L27.3734 13.4981Z" fill="white" stroke="#1D1E1E" stroke-width="1.03477"/>
<path d="M37.7629 12.8271H45.7074C46.7602 12.8295 47.7692 13.2487 48.5136 13.9932C49.2581 14.7376 49.6773 15.7466 49.6797 16.7994C49.6797 17.8529 49.2612 18.8633 48.5162 19.6082C47.7713 20.3531 46.7609 20.7716 45.7074 20.7716H37.7629C37.2409 20.7728 36.7239 20.6709 36.2414 20.4716C35.759 20.2724 35.3206 19.9799 34.9515 19.6108C34.5824 19.2417 34.2899 18.8033 34.0907 18.3209C33.8914 17.8384 33.7895 17.3214 33.7907 16.7994C33.7907 15.7459 34.2092 14.7355 34.9541 13.9906C35.699 13.2457 36.7094 12.8271 37.7629 12.8271Z" fill="white" stroke="#1D1E1E" stroke-width="1.03477"/>
<path d="M9.13644 46.1941L2.17177 52.8763C1.80954 53.2249 1.51965 53.6416 1.31869 54.1024C1.11772 54.5632 1.00963 55.0591 1.00062 55.5617C0.991596 56.0644 1.08182 56.5638 1.26612 57.0316C1.45043 57.4993 1.72519 57.926 2.07467 58.2874L20.1793 77.1512C20.8789 77.8884 21.8423 78.3182 22.8582 78.3463C23.8742 78.3744 24.8599 77.9986 25.5992 77.3013L32.5639 70.6279C32.9246 70.2768 33.2126 69.858 33.4114 69.3955C33.6102 68.933 33.7159 68.4359 33.7224 67.9326C33.729 67.4292 33.6363 66.9295 33.4496 66.462C33.2629 65.9945 32.986 65.5684 32.6345 65.208L14.5475 46.3089C13.8447 45.5771 12.8802 45.154 11.8657 45.1325C10.8513 45.1109 9.86971 45.4928 9.13644 46.1941Z" fill="#318FCC" stroke="#1D1E1E" stroke-width="1.03477" stroke-miterlimit="10" stroke-linecap="round"/>
<path d="M85.9333 52.179L79.1804 45.285C78.8247 44.9289 78.4022 44.6465 77.9372 44.4538C77.4722 44.2611 76.9738 44.1619 76.4705 44.1619C75.9671 44.1619 75.4687 44.2611 75.0038 44.4538C74.5388 44.6465 74.1163 44.9289 73.7605 45.285L55.0821 63.5485C54.3522 64.2552 53.9321 65.2225 53.9139 66.2384C53.8957 67.2543 54.2808 68.2359 54.985 68.9684L61.7378 75.8625C62.0936 76.2185 62.5161 76.501 62.9811 76.6937C63.4461 76.8864 63.9445 76.9856 64.4478 76.9856C64.9511 76.9856 65.4496 76.8864 65.9145 76.6937C66.3795 76.501 66.802 76.2185 67.1578 75.8625L85.8273 57.5901C86.558 56.8861 86.9794 55.9209 86.9993 54.9065C87.0192 53.892 86.6358 52.9111 85.9333 52.179Z" fill="#318FCC" stroke="#1D1E1E" stroke-width="1.03477" stroke-miterlimit="10" stroke-linecap="round"/>
<path d="M53.6079 20.3657L56.7415 17.2408C57.0437 16.9424 57.2759 16.5806 57.4212 16.1816C57.6011 15.7234 57.691 15.2349 57.686 14.7427C57.6872 14.2524 57.5918 13.7666 57.4052 13.3132C57.2186 12.8597 56.9446 12.4474 56.5986 12.0999C56.2527 11.7523 55.8418 11.4763 55.3892 11.2876C54.9366 11.0989 54.4513 11.0012 53.9609 11C52.9682 11.0001 52.0159 11.3937 51.3128 12.0946L47.9761 15.4136L47.6671 15.7226L41.4263 22.0252" fill="white"/>
<path d="M53.6079 20.3657L56.7415 17.2408C57.0437 16.9424 57.2759 16.5806 57.4212 16.1816C57.6011 15.7234 57.691 15.2349 57.686 14.7427C57.6872 14.2524 57.5918 13.7666 57.4052 13.3132C57.2186 12.8597 56.9446 12.4474 56.5986 12.0999C56.2527 11.7523 55.8418 11.4763 55.3892 11.2876C54.9366 11.0989 54.4513 11.0012 53.961 11C52.9682 11.0001 52.0159 11.3937 51.3128 12.0946L47.9761 15.4136L47.6671 15.7226L41.4263 22.0252" stroke="#1D1E1E" stroke-width="1.03477" stroke-miterlimit="10" stroke-linecap="round"/>
</g>
<defs>
<clipPath id="clip0_985_6470">
<rect width="89" height="90" fill="white"/>
</clipPath>
</defs>
</svg>
