<svg width="110" height="90" viewBox="0 0 110 90" fill="none" xmlns="http://www.w3.org/2000/svg">
<g clip-path="url(#clip0_987_3353)">
<path d="M1.76312 76.2419H93.5318H107.952" fill="white"/>
<path d="M1.76312 76.2419H93.5318H107.952" stroke="#1D1E1E" stroke-width="1.4" stroke-miterlimit="10" stroke-linecap="round"/>
<path d="M23.2398 62.877H27.702C28.6003 62.877 29.4618 63.2321 30.0969 63.8641C30.7321 64.4962 31.0889 65.3534 31.0889 66.2473V72.1454C31.0889 73.351 30.6077 74.5073 29.751 75.3598C28.8943 76.2123 27.7324 76.6912 26.5208 76.6912H24.404C23.1939 76.689 22.0342 76.2091 21.1793 75.3568C20.3245 74.5045 19.8444 73.3496 19.8444 72.1454V66.2473C19.8444 65.804 19.9322 65.365 20.103 64.9556C20.2737 64.5461 20.524 64.1742 20.8394 63.8611C21.1548 63.5481 21.5291 63.3 21.941 63.1311C22.3529 62.9622 22.7943 62.8759 23.2398 62.877Z" fill="white" stroke="#1D1E1E" stroke-width="1.4" stroke-miterlimit="10"/>
<path d="M74.6289 62.877H79.0954C79.9937 62.877 80.8551 63.232 81.4903 63.8641C82.1255 64.4962 82.4823 65.3534 82.4823 66.2473V72.1454C82.4823 73.351 82.001 74.5073 81.1444 75.3598C80.2877 76.2123 79.1257 76.6912 77.9142 76.6912H75.7974C74.588 76.6878 73.4294 76.2074 72.5754 75.3553C71.7215 74.5032 71.242 73.3489 71.242 72.1454V66.2473C71.242 65.3534 71.5988 64.4962 72.234 63.8641C72.8691 63.232 73.7306 62.877 74.6289 62.877Z" fill="white" stroke="#1D1E1E" stroke-width="1.4" stroke-miterlimit="10"/>
<path d="M84.7304 46.1558C84.8819 45.9688 85.0138 45.7669 85.1241 45.5533C85.4988 44.8126 85.6558 43.9817 85.5771 43.1562C85.4941 42.416 85.2114 41.7119 84.759 41.1186C84.3066 40.5252 83.7013 40.0647 83.0073 39.7858C82.6418 39.6385 82.2567 39.5449 81.8642 39.5077C81.2914 39.4531 80.7134 39.5183 80.1674 39.6991C79.6214 39.8798 79.1194 40.1722 78.6937 40.5574C78.2679 40.9426 77.9278 41.4121 77.6951 41.9358C77.4625 42.4596 77.3424 43.0259 77.3427 43.5985C77.3432 43.7393 77.3517 43.88 77.3681 44.0198C77.468 44.8201 77.425 45.6316 77.2411 46.417L76.9405 47.6134C76.911 47.7282 76.9128 47.8487 76.9458 47.9625C76.9787 48.0763 77.0415 48.1793 77.1278 48.2609C77.2141 48.3425 77.3207 48.3997 77.4366 48.4266C77.5525 48.4535 77.6735 48.4491 77.7872 48.4139L79.5526 47.921C80.1853 47.7563 80.8378 47.6797 81.4916 47.6935C82.1117 47.6889 82.7232 47.5487 83.2829 47.283C83.8425 47.0173 84.3367 46.6325 84.7304 46.1558Z" fill="#318FCC" stroke="#1D1E1E" stroke-width="1.4" stroke-miterlimit="10" stroke-linecap="round"/>
<path d="M16.4423 46.156C16.2921 45.9689 16.1616 45.767 16.0528 45.5535C15.6699 44.8167 15.5054 43.9868 15.5786 43.1606C15.6616 42.4204 15.9443 41.7163 16.3968 41.1229C16.8492 40.5296 17.4544 40.0691 18.1484 39.7902C18.5139 39.6429 18.899 39.5493 19.2915 39.5121C19.8643 39.4575 20.4423 39.5227 20.9883 39.7034C21.5343 39.8842 22.0363 40.1766 22.4621 40.5618C22.8878 40.947 23.228 41.4165 23.4606 41.9402C23.6933 42.464 23.8133 43.0303 23.8131 43.6029C23.8125 43.7437 23.804 43.8844 23.7877 44.0242C23.6877 44.8245 23.7307 45.636 23.9147 46.4214L24.2153 47.6178C24.2448 47.7326 24.2429 47.8531 24.21 47.9669C24.1771 48.0807 24.1142 48.1837 24.0279 48.2653C23.9416 48.3469 23.835 48.4041 23.7191 48.431C23.6032 48.4579 23.4822 48.4535 23.3685 48.4183L21.6031 47.9254C20.9718 47.7609 20.3207 47.6844 19.6683 47.6979C19.0475 47.6939 18.4352 47.554 17.8748 47.2883C17.3144 47.0225 16.8196 46.6374 16.4254 46.1602L16.4423 46.156Z" fill="white" stroke="#1D1E1E" stroke-width="1.4" stroke-miterlimit="10" stroke-linecap="round"/>
<path d="M78.5971 45.8103L73.648 32.2783C72.8107 30.4798 71.4717 28.9586 69.7905 27.8957C68.1092 26.8329 66.1564 26.2732 64.1646 26.2832H36.7644C34.9429 26.2764 33.1514 26.7442 31.5679 27.64C29.9844 28.5358 28.6641 29.8284 27.7382 31.3893L21.5444 46.2399L78.5971 45.8103Z" fill="#318FCC" stroke="#1D1E1E" stroke-width="1.4" stroke-miterlimit="10"/>
<path d="M81.1508 68.5097C60.8779 69.5967 40.5608 69.5967 20.2878 68.5097C17.8577 68.5097 15.8848 66.8793 15.8848 64.8655V54.6154C15.8848 49.2102 21.1769 44.8287 27.7094 44.8287H73.725C80.2533 44.8287 85.5496 49.2102 85.5496 54.6154V64.8655C85.5538 66.8793 83.5809 68.5097 81.1508 68.5097Z" fill="white" stroke="#1D1E1E" stroke-width="1.4" stroke-miterlimit="10"/>
<path d="M65.5301 60.4292C55.8966 61.1117 46.2266 61.1117 36.5931 60.4292H65.5301Z" fill="white"/>
<path d="M65.5301 60.4292C55.8966 61.1117 46.2266 61.1117 36.5931 60.4292" stroke="#1D1E1E" stroke-width="1.4" stroke-miterlimit="10" stroke-linecap="round"/>
<path d="M29.7401 51.7168H26.4251C24.7369 51.7168 23.3684 53.0786 23.3684 54.7585V55.7107C23.3684 57.3906 24.7369 58.7524 26.4251 58.7524H29.7401C31.4282 58.7524 32.7968 57.3906 32.7968 55.7107V54.7585C32.7968 53.0786 31.4282 51.7168 29.7401 51.7168Z" fill="#318FCC" stroke="#1D1E1E" stroke-width="1.4" stroke-miterlimit="10"/>
<path d="M76.0014 51.7168H72.6865C70.9983 51.7168 69.6298 53.0786 69.6298 54.7585V55.7107C69.6298 57.3906 70.9983 58.7524 72.6865 58.7524H76.0014C77.6896 58.7524 79.0581 57.3906 79.0581 55.7107V54.7585C79.0581 53.0786 77.6896 51.7168 76.0014 51.7168Z" fill="#318FCC" stroke="#1D1E1E" stroke-width="1.4" stroke-miterlimit="10"/>
<path d="M91.4258 39.2163C91.9676 39.3101 92.4574 39.5818 92.8094 39.9838C93.1614 40.3858 93.3531 40.8925 93.351 41.4151V55.3629C93.3837 59.2891 92.2434 63.1436 90.0621 66.4801C87.8807 69.8166 84.7477 72.4985 81.0259 74.215C79.554 74.8671 77.9061 75.8073 76.4598 75.8073C75.0136 75.8073 73.3633 74.8671 71.8902 74.215C68.1689 72.4978 65.0364 69.8158 62.8552 66.4795C60.6739 63.1431 59.5332 59.2889 59.5651 55.3629V41.4151C59.5638 40.8922 59.7563 40.3855 60.1089 39.9836C60.4615 39.5816 60.9517 39.31 61.4939 39.2163C65.704 38.5063 70.735 37.1208 75.1667 34.4292C75.552 34.1945 76.0002 34.0697 76.4581 34.0697C76.9159 34.0697 77.3641 34.1945 77.7494 34.4292C82.1847 37.1312 87.2157 38.5098 91.4258 39.2163Z" fill="white" stroke="#1D1E1E" stroke-width="1.4" stroke-miterlimit="10"/>
<path d="M70.1511 55.5879L76.0076 60.0708L84.1165 47.9669" stroke="#1D1E1E" stroke-width="1.4" stroke-miterlimit="10" stroke-linecap="round"/>
</g>
<defs>
<clipPath id="clip0_987_3353">
<rect width="108" height="64" fill="white" transform="translate(1 13)"/>
</clipPath>
</defs>
</svg>
