<svg width="110" height="90" viewBox="0 0 110 90" fill="none" xmlns="http://www.w3.org/2000/svg">
<path d="M47.5384 16.0047C44.9245 15.9408 42.3353 16.5247 40.002 17.7045C37.6686 18.8844 35.6636 20.6234 34.1656 22.7664C32.023 25.9535 30.9124 29.7225 30.9844 33.5622C31.0564 37.4018 32.3075 41.1265 34.568 44.231C42.4866 56.0893 58.0387 66.4554 58.7093 66.8913C59.0886 67.1457 59.535 67.2816 59.9918 67.2816C60.4485 67.2816 60.8949 67.1457 61.2743 66.8913C61.9337 66.4554 77.4802 56.0893 85.4156 44.231C87.6746 41.1259 88.9248 37.4013 88.9968 33.562C89.0687 29.7227 87.959 25.9541 85.8179 22.7664C84.3107 20.6315 82.303 18.8987 79.9706 17.7198C77.6383 16.541 75.0524 15.9522 72.4396 16.0047C69.9486 16.0885 67.515 16.7742 65.3468 18.0033C63.1786 19.2324 61.3403 20.9684 59.989 23.0626C58.6377 20.9684 56.7994 19.2324 54.6312 18.0033C52.463 16.7742 50.0293 16.0885 47.5384 16.0047Z" fill="#318FCC" stroke="#1D1E1E" stroke-width="1.5" stroke-miterlimit="10"/>
<path d="M30.1924 52.2334C30.1924 52.2334 47.3204 47.6735 52.6907 47.8802C58.061 48.087 65.756 49.0872 65.4599 53.2505C64.8507 61.6329 51.5731 52.6413 50.5616 58.1122C50.0028 61.1243 54.6354 63.8738 61.0787 63.0859C67.2258 62.3314 73.7752 60.5991 78.732 60.4426C97.5476 59.8503 72.0261 72.91 57.4519 73.2956C40.8045 73.7594 27.3536 64.2761 27.3536 64.2761C27.3536 64.2761 22.883 55.754 25.3586 54.3849C26.9085 53.5372 28.5252 52.8176 30.1924 52.2334Z" fill="white" stroke="#1D1E1E" stroke-width="1.5" stroke-miterlimit="10"/>
<path d="M29.4606 49.2773H23.3918C22.0708 49.2773 21 50.3482 21 51.6691V67.8751C21 69.196 22.0708 70.2668 23.3918 70.2668H29.4606C30.7816 70.2668 31.8524 69.196 31.8524 67.8751V51.6691C31.8524 50.3482 30.7816 49.2773 29.4606 49.2773Z" fill="white" stroke="#1D1E1E" stroke-width="1.5" stroke-miterlimit="10" stroke-linecap="round"/>
</svg>
