<svg width="125" height="95" viewBox="0 0 125 95" fill="none" xmlns="http://www.w3.org/2000/svg">
<path d="M2 83.48H122.67" stroke="#1D1E1E" stroke-width="1.4" stroke-miterlimit="10" stroke-linecap="round"/>
<path d="M62.6899 10.27H24.3799C21.8699 10.27 19.8299 12.31 19.8299 14.82V83.42H67.2399V14.82C67.2399 12.31 65.1999 10.27 62.6899 10.27Z" fill="white" stroke="#1D1E1E" stroke-width="1.4" stroke-miterlimit="10"/>
<path d="M30.26 19.1899H56.82C58.4713 19.1899 59.81 20.5286 59.81 22.1799V42.0299C59.81 43.6813 58.4713 45.0199 56.82 45.0199H30.26C28.6086 45.0199 27.27 43.6813 27.27 42.0299V22.1799C27.27 20.5286 28.6086 19.1899 30.26 19.1899Z" fill="white" stroke="#1D1E1E" stroke-width="1.4" stroke-miterlimit="10"/>
<path d="M20.1498 50.8398H17.3298C16.0298 50.8398 14.9798 51.8898 14.9798 53.1898V70.9098C14.9798 72.2098 13.9298 73.2598 12.6298 73.2598H9.76983C8.46983 73.2598 7.41983 72.2098 7.41983 70.9098V38.0398" stroke="#1D1E1E" stroke-width="1.4" stroke-miterlimit="10"/>
<path d="M12.5298 28.2998H2.99982C2.44982 28.2998 1.99982 28.7498 1.99982 29.2998V32.1398C1.99982 35.3198 4.57983 37.9098 7.76983 37.9098C10.9498 37.9098 13.5398 35.3298 13.5398 32.1398V29.2998C13.5398 28.7498 13.0898 28.2998 12.5398 28.2998H12.5298Z" fill="white" stroke="#1D1E1E" stroke-width="1.4" stroke-miterlimit="10"/>
<path d="M10.5398 28.2698V23.8398" stroke="#1D1E1E" stroke-width="1.4" stroke-linecap="round" stroke-linejoin="round"/>
<path d="M4.97983 28.2698V23.8398" stroke="#1D1E1E" stroke-width="1.4" stroke-linecap="round" stroke-linejoin="round"/>
<path d="M46.85 30.0201L44.2 29.8501L45.3 25.8401C45.41 25.4501 45.23 25.0401 44.87 24.8501C44.51 24.6601 44.07 24.7401 43.81 25.0501L38.9 30.7501C38.68 31.0001 38.63 31.3401 38.76 31.6501C38.89 31.9501 39.17 32.1601 39.5 32.1801L42.15 32.3501L41.05 36.3601C40.94 36.7501 41.12 37.1601 41.48 37.3501C41.61 37.4201 41.75 37.4501 41.89 37.4501C42.13 37.4501 42.37 37.3501 42.54 37.1501L47.45 31.4601C47.67 31.2101 47.72 30.8701 47.59 30.5601C47.46 30.2601 47.18 30.0501 46.85 30.0301V30.0201Z" fill="#FF7300" stroke="#1D1E1E" stroke-width="1.4" stroke-miterlimit="10"/>
<path d="M68.2599 65.53C57.3099 66.31 46.3199 66.31 35.3799 65.53H68.2599Z" fill="white"/>
<path d="M50.4124 68.121H55.3045C56.2887 68.121 57.2343 68.5069 57.929 69.2017C58.6237 69.8964 59.0193 70.8323 59.0193 71.8165V78.2814C59.0193 79.6033 58.4886 80.8673 57.5527 81.8033C56.6167 82.7392 55.3431 83.2603 54.0115 83.2603H51.6861C50.3545 83.2603 49.0905 82.7296 48.1545 81.7936C47.2186 80.8577 46.6879 79.5936 46.6879 78.2717V71.8069C46.6879 71.3244 46.7844 70.842 46.9677 70.3885C47.151 69.935 47.4309 69.5297 47.7782 69.192C48.1256 68.8447 48.5309 68.5745 48.9844 68.3911C49.4379 68.2078 49.9203 68.1113 50.4124 68.1113V68.121Z" fill="white" stroke="#1D1E1E" stroke-width="1.4" stroke-miterlimit="10"/>
<path d="M106.763 68.121H111.664C112.649 68.121 113.594 68.5069 114.289 69.2017C114.984 69.8964 115.379 70.8323 115.379 71.8165V78.2814C115.379 79.6033 114.849 80.8673 113.913 81.8033C112.977 82.7392 111.703 83.2603 110.371 83.2603H108.046C106.724 83.2603 105.45 82.7296 104.514 81.7936C103.578 80.8577 103.048 79.5936 103.048 78.2717V71.8069C103.048 70.8227 103.443 69.8867 104.138 69.192C104.833 68.4973 105.778 68.1113 106.763 68.1113V68.121Z" fill="white" stroke="#1D1E1E" stroke-width="1.4" stroke-miterlimit="10"/>
<path d="M117.84 49.7873C118.004 49.5847 118.149 49.3628 118.274 49.1312C118.689 48.3207 118.853 47.404 118.766 46.5067C118.679 45.6962 118.361 44.9242 117.869 44.2681C117.377 43.6216 116.711 43.1102 115.949 42.8111C115.543 42.6471 115.129 42.5506 114.694 42.5023C114.067 42.4445 113.43 42.512 112.832 42.7146C112.234 42.9173 111.684 43.2357 111.221 43.6602C110.758 44.0848 110.381 44.5962 110.13 45.1751C109.879 45.7541 109.744 46.3716 109.744 46.9988C109.744 47.1532 109.754 47.3076 109.773 47.4619C109.879 48.34 109.831 49.2277 109.638 50.0865L109.31 51.3987C109.281 51.5242 109.281 51.6593 109.31 51.7847C109.339 51.9101 109.416 52.0259 109.513 52.1128C109.609 52.1996 109.725 52.2671 109.851 52.2961C109.976 52.325 110.111 52.325 110.236 52.2864L112.176 51.7461C112.871 51.5628 113.585 51.4856 114.299 51.4952C114.974 51.4952 115.65 51.3408 116.267 51.0417C116.885 50.7522 117.425 50.3277 117.85 49.8066L117.84 49.7873Z" fill="white" stroke="#1D1E1E" stroke-width="1.4" stroke-miterlimit="10" stroke-linejoin="round"/>
<path d="M42.9633 49.7873C42.7993 49.5847 42.6546 49.3628 42.5388 49.1312C42.1142 48.3207 41.9405 47.4137 42.0177 46.5067C42.1046 45.6962 42.423 44.9242 42.9151 44.2681C43.4072 43.6216 44.073 43.1102 44.8352 42.8111C45.2405 42.6471 45.6554 42.5506 46.0896 42.5023C46.7168 42.4445 47.3536 42.512 47.9519 42.7146C48.5501 42.9173 49.1001 43.2357 49.5632 43.6602C50.0264 44.0848 50.4027 44.5962 50.6536 45.1751C50.9045 45.7541 51.0395 46.3716 51.0395 46.9988C51.0395 47.1532 51.0299 47.3076 51.0106 47.4619C50.9045 48.34 50.9527 49.2277 51.1457 50.0865L51.4738 51.3987C51.5027 51.5242 51.5027 51.6593 51.4738 51.7847C51.4352 51.9101 51.3676 52.0259 51.2711 52.1128C51.1746 52.1996 51.0588 52.2671 50.9334 52.2961C50.808 52.325 50.6729 52.325 50.5474 52.2864L48.608 51.7461C47.9133 51.5628 47.1992 51.4856 46.4852 51.4952C45.8001 51.4952 45.1344 51.3408 44.5168 51.0417C43.8993 50.7522 43.3589 50.3277 42.9247 49.8066H42.944L42.9633 49.7873Z" fill="white" stroke="#1D1E1E" stroke-width="1.4" stroke-miterlimit="10" stroke-linecap="round" stroke-linejoin="round"/>
<path d="M111.114 49.4113L105.692 34.5711C104.775 32.6027 103.308 30.9334 101.465 29.7659C99.6223 28.5984 97.4802 27.9905 95.2995 28.0001H65.2525C63.2552 28.0001 61.2868 28.5019 59.5499 29.4861C57.8131 30.4703 56.3658 31.8887 55.3526 33.5965L48.5597 49.8841L111.114 49.4113Z" fill="#FF7300" stroke="#1D1E1E" stroke-width="1.4" stroke-miterlimit="10"/>
<path d="M113.913 74.296C91.6814 75.4925 69.4114 75.4925 47.1801 74.296C44.517 74.296 42.3556 72.511 42.3556 70.3014V59.0603C42.3556 53.1358 48.1547 48.3306 55.3239 48.3306H105.779C112.938 48.3306 118.747 53.1358 118.747 59.0603V70.3014C118.747 72.511 116.585 74.296 113.922 74.296H113.913Z" fill="white" stroke="#1D1E1E" stroke-width="1.4" stroke-miterlimit="10"/>
<path d="M96.7854 65.4385C86.2198 66.1911 75.6155 66.1911 65.0595 65.4385" stroke="#1D1E1E" stroke-width="1.4" stroke-miterlimit="10" stroke-linecap="round"/>
<path d="M57.5432 56.5996H53.9055C52.0529 56.5996 50.5573 58.0952 50.5573 59.9382V60.9803C50.5573 62.8232 52.0625 64.3188 53.9055 64.3188H57.5432C59.3958 64.3188 60.8914 62.8232 60.8914 60.9803V59.9382C60.8914 58.0952 59.3861 56.5996 57.5432 56.5996Z" fill="#FF7300" stroke="#1D1E1E" stroke-width="1.4" stroke-miterlimit="10"/>
<path d="M108.268 56.5996H104.63C102.777 56.5996 101.282 58.0952 101.282 59.9382V60.9803C101.282 62.8232 102.787 64.3188 104.63 64.3188H108.268C110.12 64.3188 111.616 62.8232 111.616 60.9803V59.9382C111.616 58.0952 110.111 56.5996 108.268 56.5996Z" fill="#FF7300" stroke="#1D1E1E" stroke-width="1.4" stroke-miterlimit="10"/>
</svg>
