<svg width="69" height="25" viewBox="0 0 69 25" fill="none" xmlns="http://www.w3.org/2000/svg">
<g clip-path="url(#clip0_3610_8388)">
<path d="M44.9438 6.59106H40.4306C40.3034 6.59106 40.1814 6.64147 40.0914 6.73114C40.0015 6.82081 39.951 6.94239 39.951 7.0692V8.47803H39.8825C39.2888 7.65689 38.4978 6.99752 37.5821 6.56042C36.6663 6.12332 35.6551 5.92249 34.6413 5.97633C29.5029 5.97633 25.7005 10.2455 25.7005 15.4709C25.7005 20.6963 29.3659 24.991 34.6413 24.991C36.9878 24.991 39.1117 24.0262 39.8825 22.4295H39.951V23.864C39.9498 23.9275 39.9614 23.9906 39.985 24.0496C40.0086 24.1086 40.0437 24.1623 40.0884 24.2076C40.133 24.2529 40.1863 24.2889 40.245 24.3135C40.3038 24.338 40.3669 24.3506 40.4306 24.3506H44.9438C45.0075 24.3506 45.0705 24.338 45.1293 24.3135C45.1881 24.2889 45.2413 24.2529 45.286 24.2076C45.3306 24.1623 45.3657 24.1086 45.3893 24.0496C45.4129 23.9906 45.4245 23.9275 45.4233 23.864V7.0692C45.4233 7.00641 45.4109 6.94424 45.3868 6.88623C45.3627 6.82822 45.3274 6.77554 45.2829 6.73114C45.2383 6.68674 45.1855 6.65152 45.1273 6.62749C45.0691 6.60346 45.0067 6.59106 44.9438 6.59106ZM35.3436 20.1242C34.4154 20.1703 33.4946 19.938 32.7001 19.4574C31.9056 18.9767 31.2737 18.2698 30.886 17.4277C30.4983 16.5856 30.3726 15.6471 30.5251 14.7331C30.6775 13.8191 31.1012 12.9716 31.7414 12.2999C32.3815 11.6283 33.2089 11.1633 34.1167 10.9649C35.0245 10.7665 35.9711 10.8439 36.8343 11.187C37.6976 11.5301 38.4379 12.1232 38.9599 12.8898C39.4818 13.6564 39.7614 14.5614 39.7625 15.4879C39.7925 16.6867 39.3439 17.8484 38.5153 18.7177C37.6867 19.587 36.546 20.0929 35.3436 20.1242Z" fill="#001779"/>
<path d="M5.34404 8.63184H0.591032C0.326165 8.63184 0.111449 8.84591 0.111449 9.10998V23.8897C0.111449 24.1538 0.326165 24.3678 0.591032 24.3678H5.34404C5.60891 24.3678 5.82362 24.1538 5.82362 23.8897V9.10998C5.82362 8.84591 5.60891 8.63184 5.34404 8.63184Z" fill="#001779"/>
<path d="M23.1313 18.6639H15.5522V0.528679C15.5533 0.465173 15.5417 0.402051 15.5182 0.343051C15.4946 0.284051 15.4594 0.230351 15.4148 0.185043C15.3701 0.139735 15.3169 0.103762 15.2581 0.0792011C15.1994 0.0546401 15.1363 0.0419821 15.0726 0.0419922H10.3196C10.2559 0.0419821 10.1928 0.0546401 10.1341 0.0792011C10.0753 0.103762 10.0221 0.139735 9.97741 0.185043C9.93277 0.230351 9.89761 0.284051 9.87402 0.343051C9.85043 0.402051 9.83888 0.465173 9.84002 0.528679V23.8808C9.84002 24.0076 9.89053 24.1292 9.98047 24.2189C10.0704 24.3085 10.1924 24.3589 10.3196 24.3589H23.1656C23.2936 24.3589 23.4164 24.3088 23.5077 24.2194C23.599 24.13 23.6515 24.0084 23.6537 23.8808V19.1421C23.6527 19.0759 23.6382 19.0106 23.611 18.9502C23.5839 18.8898 23.5446 18.8356 23.4957 18.7909C23.4468 18.7461 23.3893 18.7118 23.3266 18.69C23.264 18.6681 23.1975 18.6593 23.1313 18.6639Z" fill="#001779"/>
<path d="M60.1278 5.97711C59.1858 5.93644 58.2459 6.09581 57.3704 6.44467C56.4949 6.79353 55.7037 7.32392 55.0493 8.00067V0.563835C55.0493 0.434759 54.9979 0.311001 54.9063 0.219731C54.8148 0.12846 54.6906 0.0771484 54.5612 0.0771484H49.9109C49.783 0.0793872 49.661 0.131672 49.5713 0.222701C49.4816 0.31373 49.4313 0.436225 49.4314 0.563835V23.8989C49.4302 23.9624 49.4417 24.0255 49.4653 24.0845C49.4889 24.1435 49.5241 24.1972 49.5687 24.2425C49.6134 24.2878 49.6666 24.3238 49.7254 24.3484C49.7841 24.3729 49.8472 24.3856 49.9109 24.3856H54.3385C54.4026 24.3856 54.4661 24.373 54.5253 24.3485C54.5845 24.3241 54.6384 24.2882 54.6837 24.243C54.729 24.1978 54.765 24.1442 54.7895 24.0851C54.814 24.0261 54.8266 23.9628 54.8266 23.8989V22.4901H54.8866C55.6916 24.0013 57.8497 24.9918 60.025 24.9918C65.5231 24.9918 69.0343 20.8593 69.0343 15.3777C69 9.44365 64.7609 5.97711 60.1278 5.97711ZM59.2714 20.125C58.3429 20.1728 57.4214 19.942 56.6258 19.4625C55.8302 18.983 55.197 18.2767 54.808 17.4349C54.419 16.593 54.292 15.6542 54.4434 14.7397C54.5948 13.8252 55.0177 12.9769 55.6575 12.3044C56.2973 11.6319 57.1245 11.166 58.0325 10.9669C58.9405 10.7677 59.8875 10.8445 60.7513 11.1873C61.6151 11.5301 62.356 12.1231 62.8783 12.8898C63.4007 13.6566 63.6805 14.5618 63.6818 15.4887C63.7119 16.6803 63.2691 17.8357 62.4497 18.7038C61.6303 19.5719 60.5005 20.0826 59.3056 20.125H59.2714Z" fill="#001779"/>
<path d="M2.97171 5.92555C4.61293 5.92555 5.94341 4.59907 5.94341 2.96277C5.94341 1.32648 4.61293 0 2.97171 0C1.33048 0 3.8147e-06 1.32648 3.8147e-06 2.96277C3.8147e-06 4.59907 1.33048 5.92555 2.97171 5.92555Z" fill="#FF0000"/>
</g>
<defs>
<clipPath id="clip0_3610_8388">
<rect width="69" height="25" fill="white"/>
</clipPath>
</defs>
</svg>
