<svg width="33" height="41" viewBox="0 0 33 41" fill="none" xmlns="http://www.w3.org/2000/svg">
<path d="M30.0589 5.80718C30.574 5.89302 31.0032 6.15055 31.3037 6.53684C31.6041 6.92313 31.8187 7.39527 31.8187 7.8674V20.8296C31.8616 24.4779 30.7886 28.0404 28.8142 31.1307C26.8398 34.2211 23.9641 36.7105 20.5733 38.2986C19.2428 38.8995 17.7405 39.7579 16.41 39.7579C15.0794 39.7579 13.5772 38.8995 12.2466 38.2986C8.85583 36.7105 5.98011 34.2211 4.00573 31.1307C2.03135 28.0404 0.958318 24.4779 1.00124 20.8296V7.8674C1.00124 7.39527 1.17292 6.92313 1.51629 6.53684C1.81674 6.15055 2.28888 5.89302 2.76101 5.80718C6.581 5.16336 11.1736 3.87573 15.2511 1.34337C15.5945 1.12876 16.0237 1 16.41 1C16.7963 1 17.2255 1.12876 17.5688 1.34337C21.6034 3.87573 26.196 5.16336 30.0589 5.80718Z" fill="#81CE80" stroke="#1D1E1E" stroke-width="1.03" stroke-miterlimit="10"/>
<path d="M27.7025 8.32217C28.1274 8.39513 28.4837 8.60545 28.7326 8.92736C28.9816 9.24497 29.1575 9.63556 29.1575 10.0261V20.7479C29.1919 23.7652 28.3034 26.7139 26.6724 29.2677C25.0371 31.8259 22.6593 33.8818 19.8565 35.1952C18.7577 35.6931 17.513 36.4013 16.4142 36.4013C15.3154 36.4013 14.0707 35.6931 12.9719 35.1952C10.1649 33.8818 7.78703 31.8216 6.15602 29.2677C4.52501 26.7139 3.63654 23.7652 3.67088 20.7479V10.0261C3.67088 9.63556 3.81252 9.24497 4.0958 8.92736C4.34475 8.60974 4.73533 8.39513 5.12591 8.32217C8.28492 7.78994 12.0835 6.72549 15.4571 4.63094C15.7403 4.45496 16.0966 4.34766 16.4142 4.34766C16.7318 4.34766 17.0881 4.45496 17.3714 4.63094C20.7106 6.72549 24.5092 7.78994 27.7025 8.32217V8.32217Z" fill="white" stroke="#1D1E1E" stroke-width="1.03" stroke-miterlimit="10"/>
<path d="M12.2255 18.7266C12.1923 18.4164 12.0526 18.175 11.8064 18.0021C11.5626 17.8293 11.2453 17.7429 10.8547 17.7429C10.5801 17.7429 10.3445 17.7843 10.148 17.8672C9.95155 17.95 9.80121 18.0625 9.69705 18.2045C9.59288 18.3466 9.53961 18.5088 9.53725 18.6911C9.53725 18.8426 9.57157 18.974 9.64023 19.0852C9.71125 19.1965 9.80713 19.2912 9.92787 19.3693C10.0486 19.4451 10.1824 19.509 10.3292 19.5611C10.4759 19.6132 10.6239 19.657 10.773 19.6925L11.4549 19.8629C11.7295 19.9268 11.9934 20.0133 12.2468 20.1222C12.5024 20.2311 12.7309 20.3684 12.9321 20.5341C13.1357 20.6998 13.2967 20.8999 13.4151 21.1342C13.5335 21.3686 13.5926 21.6432 13.5926 21.9581C13.5926 22.3842 13.4837 22.7595 13.2659 23.0838C13.0481 23.4058 12.7333 23.6579 12.3213 23.8402C11.9118 24.0201 11.4158 24.1101 10.8334 24.1101C10.2676 24.1101 9.77636 24.0225 9.35969 23.8473C8.94539 23.6721 8.62105 23.4164 8.38668 23.0803C8.15467 22.7441 8.0292 22.3345 8.01026 21.8516H9.30642C9.32536 22.1049 9.40349 22.3156 9.5408 22.4837C9.67811 22.6518 9.85685 22.7772 10.077 22.8601C10.2996 22.9429 10.5481 22.9844 10.8228 22.9844C11.1092 22.9844 11.3602 22.9418 11.5756 22.8565C11.7934 22.7689 11.9639 22.6482 12.087 22.4943C12.2101 22.3381 12.2728 22.1558 12.2752 21.9474C12.2728 21.758 12.2172 21.6018 12.1083 21.4787C11.9994 21.3532 11.8467 21.2491 11.6502 21.1662C11.456 21.081 11.2288 21.0052 10.9684 20.9389L10.1409 20.7259C9.54198 20.572 9.0685 20.3388 8.72049 20.0263C8.37484 19.7114 8.20202 19.2936 8.20202 18.7727C8.20202 18.3442 8.31802 17.969 8.55003 17.647C8.78441 17.325 9.10282 17.0753 9.50529 16.8977C9.90775 16.7178 10.3635 16.6278 10.8725 16.6278C11.3886 16.6278 11.8408 16.7178 12.229 16.8977C12.6196 17.0753 12.9262 17.3227 13.1488 17.6399C13.3713 17.9548 13.4861 18.317 13.4932 18.7266H12.2255ZM18.5196 18.7266C18.4865 18.4164 18.3468 18.175 18.1006 18.0021C17.8567 17.8293 17.5395 17.7429 17.1489 17.7429C16.8742 17.7429 16.6387 17.7843 16.4422 17.8672C16.2457 17.95 16.0954 18.0625 15.9912 18.2045C15.887 18.3466 15.8338 18.5088 15.8314 18.6911C15.8314 18.8426 15.8657 18.974 15.9344 19.0852C16.0054 19.1965 16.1013 19.2912 16.222 19.3693C16.3428 19.4451 16.4765 19.509 16.6233 19.5611C16.7701 19.6132 16.918 19.657 17.0672 19.6925L17.749 19.8629C18.0236 19.9268 18.2876 20.0133 18.5409 20.1222C18.7966 20.2311 19.025 20.3684 19.2263 20.5341C19.4299 20.6998 19.5909 20.8999 19.7092 21.1342C19.8276 21.3686 19.8868 21.6432 19.8868 21.9581C19.8868 22.3842 19.7779 22.7595 19.5601 23.0838C19.3423 23.4058 19.0274 23.6579 18.6155 23.8402C18.2059 24.0201 17.7099 24.1101 17.1276 24.1101C16.5617 24.1101 16.0705 24.0225 15.6538 23.8473C15.2395 23.6721 14.9152 23.4164 14.6808 23.0803C14.4488 22.7441 14.3233 22.3345 14.3044 21.8516H15.6006C15.6195 22.1049 15.6976 22.3156 15.8349 22.4837C15.9722 22.6518 16.151 22.7772 16.3712 22.8601C16.5937 22.9429 16.8423 22.9844 17.1169 22.9844C17.4034 22.9844 17.6543 22.9418 17.8697 22.8565C18.0875 22.7689 18.258 22.6482 18.3811 22.4943C18.5042 22.3381 18.5669 22.1558 18.5693 21.9474C18.5669 21.758 18.5113 21.6018 18.4024 21.4787C18.2935 21.3532 18.1408 21.2491 17.9443 21.1662C17.7502 21.081 17.5229 21.0052 17.2625 20.9389L16.4351 20.7259C15.8361 20.572 15.3626 20.3388 15.0146 20.0263C14.669 19.7114 14.4962 19.2936 14.4962 18.7727C14.4962 18.3442 14.6122 17.969 14.8442 17.647C15.0785 17.325 15.397 17.0753 15.7994 16.8977C16.2019 16.7178 16.6576 16.6278 17.1666 16.6278C17.6827 16.6278 18.1349 16.7178 18.5231 16.8977C18.9138 17.0753 19.2204 17.3227 19.4429 17.6399C19.6654 17.9548 19.7803 18.317 19.7874 18.7266H18.5196ZM20.8613 24V16.7273H22.1788V22.8956H25.3819V24H20.8613Z" fill="black"/>
</svg>
